<?xml version="1.0" encoding="UTF-8" standalone="no"?>
<svg
   xmlns:dc="http://purl.org/dc/elements/1.1/"
   xmlns:cc="http://creativecommons.org/ns#"
   xmlns:rdf="http://www.w3.org/1999/02/22-rdf-syntax-ns#"
   xmlns:svg="http://www.w3.org/2000/svg"
   xmlns="http://www.w3.org/2000/svg"
   xmlns:sodipodi="http://sodipodi.sourceforge.net/DTD/sodipodi-0.dtd"
   xmlns:inkscape="http://www.inkscape.org/namespaces/inkscape"
   version="1.1"
   id="svg10"
   width="295.81073"
   height="295.3743"
   viewBox="0 0 295.81073 295.37429"
   sodipodi:docname="deathstar.svg"
   inkscape:version="1.0.1 (3bc2e813f5, 2020-09-07)">
  <metadata
     id="metadata16">
    <rdf:RDF>
      <cc:Work
         rdf:about="">
        <dc:format>image/svg+xml</dc:format>
        <dc:type
           rdf:resource="http://purl.org/dc/dcmitype/StillImage" />
        <dc:title></dc:title>
      </cc:Work>
    </rdf:RDF>
  </metadata>
  <defs
     id="defs14" />
  <sodipodi:namedview
     pagecolor="#ffffff"
     bordercolor="#666666"
     borderopacity="1"
     objecttolerance="10"
     gridtolerance="10"
     guidetolerance="10"
     inkscape:pageopacity="0"
     inkscape:pageshadow="2"
     inkscape:window-width="1920"
     inkscape:window-height="1027"
     id="namedview12"
     showgrid="false"
     inkscape:pagecheckerboard="true"
     fit-margin-top="0"
     fit-margin-left="0"
     fit-margin-right="0"
     fit-margin-bottom="0"
     inkscape:zoom="2"
     inkscape:cx="214.99619"
     inkscape:cy="111.19554"
     inkscape:window-x="-8"
     inkscape:window-y="-8"
     inkscape:window-maximized="1"
     inkscape:current-layer="layer1" />
  <g
     inkscape:groupmode="layer"
     inkscape:label="Image"
     id="g18"
     transform="translate(-12.631665,-12.249362)">
    <path
       style="fill:#000000;stroke-width:1.33333"
       d="M 130.74187,305.47876 C 99.889231,298.60951 79.036881,287.15074 56.652011,264.76494 41.404761,249.51706 32.519151,236.82892 25.201451,219.85535 2.1506111,166.38845 11.262081,105.72106 48.763261,62.972381 76.951371,30.839931 110.24733,14.786401 153.5193,12.464631 c 84.36935,-4.5268702 155.19242,62.92283 154.92232,147.543209 -0.16314,51.11393 -24.95096,96.64411 -67.64834,124.25624 -24.32554,15.73118 -46.62433,22.35638 -78.05141,23.1899 -16.86113,0.44718 -22.75357,0.0835 -32,-1.97522 z m 26.66667,-2.32393 c 0,-0.46915 -1.05,-1.62876 -2.33333,-2.57691 -1.5978,-1.18046 -1.90303,-2.16148 -0.96827,-3.11205 0.9422,-0.95815 3.21391,-0.16164 7.33333,2.5712 8.15624,5.41087 9.3016,5.16099 9.3016,-2.02923 0,-7.6156 2.37684,-7.88662 2.92334,-0.33333 l 0.41,5.66667 7.26978,-0.45474 c 10.4085,-0.65106 28.10482,-6.01881 42.39688,-12.86005 12.59556,-6.02916 15.18979,-8.01121 8.66667,-6.62155 -3.17179,0.67571 -2.58693,-0.21032 4.33333,-6.56476 4.40001,-4.04025 8.23598,-6.6724 8.52439,-5.84924 0.28842,0.82318 -1.06158,2.76128 -3,4.30692 -1.93841,1.54564 -3.52439,3.23772 -3.52439,3.76016 0,5.79 23.75161,-14.26598 36.47214,-30.79726 6.50627,-8.45539 14.61629,-21.60885 13.81649,-22.40865 -0.27465,-0.27465 -3.19905,-0.8694 -6.49866,-1.32165 l -5.99928,-0.82229 -3.03432,7.14988 c -1.66888,3.93244 -4.81886,10.0854 -6.99994,13.67323 -3.05061,5.0182 -3.56734,6.76948 -2.23952,7.59012 1.24335,0.76844 0.76559,1.43194 -1.70836,2.37253 -1.88894,0.71817 -4.6697,3.00153 -6.17949,5.07412 -1.50977,2.07259 -3.13221,3.38117 -3.60543,2.90796 -0.47321,-0.47321 1.97228,-4.97211 5.43442,-9.99756 6.42132,-9.32083 16.96382,-30.18784 18.59416,-36.80384 1.30165,-5.28216 3.56697,-4.5462 2.55818,0.8311 -0.84354,4.49646 -0.84197,4.49806 5.39511,5.43336 3.4314,0.51456 6.3784,0.74058 6.54889,0.50223 2.09235,-2.92513 10.59167,-27.74315 9.77442,-28.54132 -0.71796,-0.70123 -16.70315,-4.42917 -22.66214,-5.28512 -3.48333,-0.50033 -6.33333,-1.52313 -6.33333,-2.27288 0,-0.84457 2.23841,-1.05636 5.88376,-0.55671 l 5.88376,0.80646 0.90253,-10.95856 c 0.4964,-6.02722 0.69871,-13.03514 0.44958,-15.57316 -0.48628,-4.95403 -0.71731,-5.06391 -15.11963,-7.19176 l -5.33333,-0.78796 0.45828,13.29716 c 0.31068,9.01474 -0.012,13.29716 -1,13.29716 -0.95251,0 -1.45828,-4.36587 -1.45828,-12.58798 0,-8.29286 -0.54132,-12.92253 -1.5865,-13.56849 -0.87257,-0.53928 -6.12257,-1.24368 -11.66666,-1.56535 l -10.08018,-0.58485 0.45673,7.48667 c 0.29306,4.80372 -0.0653,7.48666 -1,7.48666 -0.8461,0 -1.46529,-2.6548 -1.47714,-6.33333 -0.0343,-10.63447 1.69545,-10.17389 -34.8508,-9.27952 -27.43183,0.67133 -60.83603,2.94063 -62.1696,4.22345 -0.20578,0.19795 0.15661,5.69155 0.8053,12.20799 0.64871,6.51644 0.96707,12.09808 0.70748,12.40364 -1.24169,1.46159 -2.18536,-1.97344 -3.31434,-12.0646 -0.67747,-6.05524 -1.52867,-11.30645 -1.89159,-11.66936 -0.36291,-0.36291 -5.89623,0.20376 -12.29627,1.25928 l -11.63644,1.91912 0.12067,8 c 0.0664,4.4 0.56467,10.92693 1.10733,14.50429 l 0.98667,6.5043 7.14592,-0.83987 c 4.66714,-0.54853 7.46421,-0.32487 8.06349,0.64479 1.24403,2.01288 -1.89629,3.80353 -6.75742,3.85316 -7.62709,0.0779 -8.00875,1.07021 -5.46396,14.20697 3.3095,17.0844 2.99329,16.45969 8.3316,16.45969 6.38975,0 5.18838,3.05855 -1.6438,4.18491 -2.87311,0.47367 -5.60331,0.634 -6.06712,0.35631 -0.46381,-0.27768 -2.24521,-7.78107 -3.95867,-16.67419 l -3.11538,-16.16931 -6.04133,0.78114 c -3.32273,0.42961 -8.291329,1.17613 -11.041329,1.65892 -4.01609,0.70506 -5,0.46852 -5,-1.20212 0,-1.47156 2.24245,-2.51292 7.66667,-3.56028 14.863069,-2.8699 14.048649,-2.46544 13.227909,-6.56915 -0.41057,-2.05283 -1.16823,-8.38656 -1.6837,-14.07497 l -0.93722,-10.34256 -5.16766,0.82633 c -2.842219,0.45449 -8.205639,1.47788 -11.918719,2.27419 l -6.75106,1.44785 0.91027,8.19813 c 1.03029,9.279 3.52342,22.90626 6.43868,35.19323 1.31445,5.54001 1.5197,8.61048 0.61303,9.17083 -0.74965,0.4633 -1.87809,0.0155 -2.50762,-0.9951 -1.76183,-2.82832 -4.93503,-17.56261 -7.43087,-34.50416 -1.2424,-8.43333 -2.37953,-15.50877 -2.52694,-15.72318 -0.81881,-1.19096 -18.28376,4.41974 -18.92017,6.07821 -1.08021,2.81496 1.85271,20.3706 5.60979,33.57865 1.76272,6.19686 2.89038,11.77599 2.50591,12.39808 -1.3163,2.12982 -4.16498,-1.7442 -5.66603,-7.70541 -0.82537,-3.27783 -1.98313,-5.95968 -2.5728,-5.95968 -0.58967,0 -4.24744,0.94296 -8.12837,2.09548 -6.78824,2.01589 -7.02631,2.24513 -6.26821,6.03567 1.17637,5.88182 12.27714,27.37652 19.04503,36.87736 3.26826,4.588 5.54594,8.98313 5.06152,9.76693 -1.18886,1.92362 -6.25412,-2.96493 -11.43065,-11.03186 -2.2624,-3.52563 -4.8009,-6.40206 -5.64112,-6.39205 -3.63023,0.0433 -7.52767,1.75615 -7.52767,3.30834 0,0.9252 3.95618,5.95521 8.79151,11.17783 6.7791,7.32205 9.62768,9.49564 12.44445,9.49564 4.58232,0 5.85811,1.21177 3.83821,3.64561 -0.98833,1.19085 -1.0885,2.22357 -0.27056,2.78935 18.36674,12.70422 25.55966,16.97954 26.68073,15.85846 0.31343,-0.31341 -1.69233,-2.09568 -4.45724,-3.96058 -6.9645,-4.69748 -19.0271,-16.15968 -19.0271,-18.08006 0,-3.05202 3.50222,-1.54166 8.65041,3.73056 2.85538,2.92418 9.57675,8.45282 14.93638,12.28588 7.239189,5.17727 9.556899,7.56115 9.014059,9.27147 -0.59884,1.8868 1.14576,2.88576 9.66755,5.53564 17.44671,5.42509 19.34599,5.56336 11.06493,0.80549 -7.58203,-4.35624 -12.00766,-7.711 -11.98959,-9.08848 0.0195,-1.48596 7.1753,-4.12668 11.18245,-4.12668 3.75402,0 11.47381,5.55039 11.47381,8.24946 0,1.9449 -3.56653,1.14197 -7.0305,-1.58279 -1.86456,-1.46667 -4.34547,-2.66667 -5.51314,-2.66667 -4.57678,0 -1.69945,2.78815 7.1839,6.96126 5.11881,2.40464 9.31881,5.08406 9.33334,5.95426 0.0248,1.48682 3.85279,2.37603 12.35973,2.8711 2.01667,0.11733 3.66667,-0.17047 3.66667,-0.63963 z m 28.93617,-6.14699 c 2.80731,-3.08005 9.7305,-13.73361 9.7305,-14.9735 0,-0.38124 -2.63582,-0.69316 -5.85735,-0.69316 -6.18555,0 -7.47599,1.27105 -7.47599,7.36369 0,1.73008 -0.68764,3.57057 -1.52808,4.09 -1.1244,0.69492 -1.2733,-1.30745 -0.56365,-7.57987 1.04299,-9.21885 1.65895,-10.73146 3.29323,-8.08714 0.68864,1.11422 3.31518,1.56504 7.54337,1.29472 l 6.48687,-0.41474 3.1084,-9.94648 c 3.26462,-10.44641 3.84926,-11.64189 5.08769,-10.40346 0.41864,0.41864 -0.59,5.16864 -2.24141,10.55556 -1.65143,5.3869 -2.86766,10.54438 -2.70272,11.46105 0.16493,0.91667 -0.25364,1.66667 -0.93015,1.66667 -0.67652,0 -1.98573,1.82444 -2.90937,4.0543 -2.67119,6.44882 -9.12478,14.61236 -11.55163,14.61236 -1.92532,0 -1.85677,-0.40296 0.51029,-3 z m 27.7305,-9.64286 c 5.84978,-5.19579 6.28833,-5.92762 3.57901,-5.97258 -1.69821,-0.0281 -4.24821,0.56988 -5.66667,1.32902 -3.702,1.98125 -3.29392,0.79616 3.45392,-10.0303 3.31812,-5.3237 7.7473,-14.3817 9.8426,-20.1289 2.09532,-5.74719 4.45004,-10.6629 5.23272,-10.92379 0.96838,-0.3228 1.04842,0.83196 0.25048,3.6142 l -1.17258,4.08855 h 7.82824 c 4.30553,0 8.13975,0.50404 8.52049,1.12009 0.38074,0.61605 -1.53385,4.96605 -4.25464,9.66667 -5.66429,9.78597 -28.14565,33.22697 -31.82725,33.18581 -1.76407,-0.0197 -0.58067,-1.69043 4.21368,-5.94877 z m 13.78165,-13.31216 c 4.28959,-4.88556 14.88502,-20.05098 14.88502,-21.30515 0,-0.40691 -3.15001,-0.72795 -7.00001,-0.71343 l -7,0.0264 -5.92932,12.30695 c -3.26113,6.76881 -6.16113,12.75693 -6.44444,13.30693 -0.28332,0.55 1.27272,1 3.45786,1 2.86385,0 5.10584,-1.29024 8.03089,-4.62169 z m -92.11499,11.866 c -1.63033,-1.66635 -1.14395,-3.24431 1,-3.24431 2.81492,0 2.66104,-0.67437 -2.9718,-13.02379 l -5.0282,-11.02378 -5.88212,0.35712 c -3.78916,0.23005 -6.08212,-0.23566 -6.44421,-1.30884 -0.57602,-1.70726 0.32686,-2.19526 6.5971,-3.56571 l 3.6041,-0.78773 -1.96326,-5.56447 c -1.09887,-3.11453 -1.45738,-6.07036 -0.81426,-6.71348 1.52172,-1.52172 3.5127,1.13105 5.5163,7.34989 l 1.62784,5.05255 7.87926,-0.89144 c 5.01591,-0.56748 7.87925,-0.40081 7.87925,0.45861 0,1.57888 -4.45441,2.95031 -9.66666,2.9762 -4.94664,0.0245 -4.72375,1.97498 1.68154,14.71447 5.34074,10.6222 5.35566,10.63707 10.66667,10.63707 5.37833,0 7.08756,1.70249 3.20501,3.19237 -3.76537,1.44491 -15.85766,2.43689 -16.88656,1.38527 z m 21.84892,-6.10736 c -2.25598,-6.9634 -6.8292,-26.84666 -6.83957,-29.73695 -0.007,-2.02223 0.34621,-2.24444 1.59065,-1 0.88,0.88 5.03224,1.6 9.22722,1.6 h 7.6272 l 0.82698,9 c 0.45484,4.95 1.12979,10.95 1.49988,13.33333 0.37008,2.38334 0.10987,4.33334 -0.57821,4.33334 -1.77951,0 -2.86739,-3.43554 -2.88441,-9.10906 -0.008,-2.69001 -0.39151,-7.17137 -0.8521,-9.95854 -0.82568,-4.9966 -0.91421,-5.06199 -6.31865,-4.66667 -5.28011,0.38623 -5.47375,0.56252 -5.27704,4.80423 0.11227,2.4218 1.25137,8.2718 2.53124,13 l 2.32701,8.5967 h 5.80211 c 3.19116,0 5.80211,0.6 5.80211,1.33334 0,0.73333 -1.125,1.33333 -2.5,1.33333 -1.375,0 -4.30814,0.36163 -6.51807,0.80361 -3.65189,0.73038 -4.15005,0.39623 -5.46635,-3.66666 z m -61.767299,-8.13695 c -8.29895,-8.9118 -23.74828,-34.01278 -23.74828,-38.58452 0,-1.45243 3.12874,-2.73719 11,-4.51699 6.05,-1.36799 11.49003,-2.50477 12.08895,-2.5262 0.59893,-0.0215 3.37355,5.49927 6.165829,12.2682 4.54976,11.02935 10.48554,21.9643 18.8322,34.69284 2.67412,4.078 2.69635,4.33295 0.37728,4.3267 -1.53651,-0.004 -4.44099,-3.02107 -7.71474,-8.01343 -5.09339,-7.76723 -5.39258,-7.98333 -10,-7.22281 -8.613069,1.42172 -8.689759,1.58124 -3.514159,7.31001 2.670399,2.95581 4.499459,5.94989 4.064599,6.65353 -1.25366,2.02846 -1.95832,1.61907 -7.551679,-4.38733 z m 5.540169,-22.81571 c -2.070909,-4.50136 -4.659479,-10.39145 -5.752389,-13.08909 l -1.9871,-4.90479 -7.50262,1.74404 c -4.12644,0.95921 -7.84764,2.08907 -8.26934,2.51077 -0.86514,0.86514 6.23879,14.05571 10.97393,20.37642 3.04578,4.06565 3.25444,4.12693 9.70775,2.85096 l 6.595059,-1.30401 z m 82.37821,9.05474 c -0.55,-0.55924 -1,-9.681 -1,-20.27058 0,-17.00912 -0.24588,-19.1594 -2.10905,-18.44444 -1.15997,0.44513 -4.75997,0.80932 -8,0.80932 -5.39479,0 -5.89095,0.28075 -5.89095,3.33333 0,4.56635 -2.64725,4.24486 -2.74477,-0.33333 -0.14316,-6.72033 -3.31197,-36.16869 -3.95499,-36.75441 -0.34846,-0.31742 -4.16278,-0.27166 -8.47626,0.10173 l -7.8427,0.6788 0.7918,8.15363 c 0.4355,4.48449 1.19627,11.00362 1.6906,14.48696 0.56068,3.95089 0.39467,6.33333 -0.44134,6.33333 -1.31344,-4e-5 -4.35567,-19.38699 -4.35567,-27.757 0,-3.89512 0.35532,-4.24424 4.33333,-4.25772 2.38334,-0.008 6.61342,-0.39145 9.40018,-0.85196 l 5.06685,-0.83731 -0.89367,-12.81469 c -0.59118,-8.47728 -0.44594,-12.3634 0.4291,-11.48136 0.7275,0.73333 2.34352,13.33333 3.59114,28 1.24762,14.66667 2.58939,27.79391 2.98172,29.17164 0.6206,2.17935 1.60452,2.3986 7.56902,1.68668 3.77061,-0.45007 7.75566,-0.92183 8.85566,-1.04836 1.1,-0.12653 6.35,-0.13553 11.66667,-0.02 12.53831,0.27244 12.80055,2.87671 0.28967,2.87671 h -9.377 l 0.377,15 0.377,15 h 9.55718 c 5.25646,0 9.89175,-0.33529 10.30066,-0.74509 0.40889,-0.4098 1.48833,-7.75981 2.39873,-16.33334 l 1.65527,-15.58824 h 10.37741 c 6.02939,0 10.37741,0.55865 10.37741,1.33333 0,0.75784 -3.90365,1.33334 -9.04428,1.33334 h -9.04428 l -1.64116,13.66666 c -2.55269,21.25742 -1.39302,19.66667 -14.33722,19.66667 -10.9406,0 -11.09492,0.0464 -11.51116,3.46126 -0.23204,1.90369 -0.8719,3.00369 -1.4219,2.44444 z m 65.66667,-17.85634 c 0,-0.70619 1.2,-4.3284 2.66667,-8.04936 4.41795,-11.20844 4.04639,-11.99661 -5.66667,-12.02041 -11.69881,-0.0287 -11.98701,-0.3452 -10.38792,-11.40903 0.73431,-5.08047 1.34699,-13.3708 1.36151,-18.42295 l 0.0264,-9.18572 7,0.8408 c 3.85,0.46244 8.95,0.84602 11.33333,0.85239 2.38334,0.007 4.33334,0.67356 4.33334,1.48264 0,0.98055 -3.22318,1.31399 -9.66667,1 l -9.66665,-0.47105 -0.90675,12 c -0.49872,6.6 -1.21987,13.58077 -1.60258,15.51282 -0.60822,3.07064 -0.1794,3.6161 3.40677,4.33334 2.2564,0.45128 6.64949,0.8205 9.76241,0.8205 h 5.65987 l 1.54168,-7.8362 c 0.84792,-4.3099 1.91454,-11.82924 2.37029,-16.70961 0.45573,-4.88039 1.34004,-9.18951 1.96512,-9.57583 1.783,-1.10196 1.33307,10.19328 -0.86325,21.67102 -2.6201,13.69241 -2.60946,13.78057 1.66644,13.80437 2.01666,0.0107 4.56666,0.60204 5.66666,1.31292 2.14776,1.38799 1.99692,1.43381 -5.8435,1.77483 l -5.17686,0.22517 -3.39696,9.66667 c -1.86832,5.31666 -3.88873,9.66666 -4.48981,9.66666 -0.60108,0 -1.09287,-0.57778 -1.09287,-1.28397 z m -104,-19.92596 c 0,-1.03645 14.48597,-2.81955 15.80019,-1.94487 0.25676,0.1709 0.0713,0.95064 -0.41203,1.73276 -1.06581,1.72452 -15.38816,1.92194 -15.38816,0.21211 z m 65.33333,-23.91857 c 0,-8.68734 -0.37692,-21.43734 -0.83758,-28.33334 -0.6682,-10.00232 -0.50046,-12.22209 0.8294,-10.97542 2.29769,2.154 3.77209,55.10393 1.53437,55.10393 -1.06013,0 -1.52619,-4.82331 -1.52619,-15.79517 z m -28.74402,-5.02898 -0.93592,-7.49081 -5.93422,0.81337 c -4.4089,0.60432 -5.79426,0.38776 -5.38973,-0.84252 0.29947,-0.91073 3.0486,-1.84042 6.10919,-2.06597 l 5.56469,-0.41008 -0.77659,-13.58992 c -0.55992,-9.79848 -0.38009,-13.03195 0.64459,-11.58992 0.78165,1.1 1.43037,4.46625 1.4416,7.48057 0.0107,3.01431 0.40197,8.26431 0.86831,11.66667 l 0.8479,6.18609 h 11.23079 c 7.14767,0 10.9312,0.48475 10.40675,1.33334 -0.45323,0.73333 -5.67124,1.33333 -11.5956,1.33333 h -10.77155 l 0.86188,7.33333 c 0.50344,4.28343 0.34243,7.33334 -0.38715,7.33334 -0.68697,0 -1.6702,-3.37087 -2.18494,-7.49082 z M 50.433741,236.76041 c 0.36468,-0.36466 -1.48398,-5.66081 -4.10811,-11.7692 -5.00649,-11.65396 -10.61662,-29.71804 -12.21051,-39.3167 -0.51754,-3.11667 -1.47609,-5.66667 -2.13013,-5.66667 -0.65404,0 -3.66358,0.99007 -6.68788,2.20015 -5.4488,2.18018 -5.49092,2.24978 -4.64009,7.66666 0.47225,3.00659 1.85023,8.63594 3.06217,12.50967 l 2.20354,7.04313 5.7429,-0.8612 c 7.10574,-1.06556 7.74327,1.23667 1.10996,4.00824 l -4.63294,1.93576 2.09979,5.08214 c 1.15489,2.79516 4.15505,8.48584 6.66701,12.64594 4.42502,7.32832 4.69633,7.52679 8.71423,6.37447 2.28086,-0.65413 4.44539,-1.48772 4.81006,-1.85239 z m 3.92058,-35.95984 c 2.35351,-0.80266 4.36431,-1.91844 4.46844,-2.4795 0.3752,-2.02155 -3.16277,-24.3366 -4.01362,-25.31519 -1.06504,-1.22492 -17.4006,4.12984 -17.4006,5.70387 0,1.46454 3.85427,19.93872 4.79169,22.9674 0.75985,2.45497 2.82172,2.30626 12.15409,-0.87658 z M 303.91313,180.62004 c 0.82248,-5.52995 1.49541,-12.40683 1.49541,-15.28193 0,-4.91872 -0.29533,-5.30491 -5,-6.53834 -13.40786,-3.51514 -12.33333,-3.76453 -12.33333,2.86235 0,3.26887 -0.37831,10.41872 -0.84068,15.88857 l -0.84068,9.9452 6.50735,1.40571 c 3.57904,0.77315 7.18441,1.48833 8.01193,1.58931 0.88852,0.1084 2.11689,-3.93331 3,-9.87087 z m -276.287399,-9.45555 4.44948,-1.8591 v -13.98211 c 0,-7.69016 -0.55026,-13.98211 -1.2228,-13.98211 -0.67253,0 -3.97253,1.17868 -7.33333,2.61928 l -6.11054,2.6193 v 14.13722 c 0,15.83979 -0.77984,15.04238 10.21719,10.44752 z m 27.78281,-9.09566 c 8.06667,-2.43259 16.61667,-4.83912 19,-5.34787 l 4.33333,-0.925 V 141.20983 126.6237 l -3.66666,0.91777 c -2.01667,0.50477 -6.36667,1.60229 -9.66667,2.43893 l -6,1.52116 -0.66667,7.81601 c -0.3882,4.55127 -1.36283,8.045 -2.33333,8.36424 -4.31119,1.41816 -0.39324,-32.1858 6.16842,-52.905979 3.84906,-12.15444 7.90554,-16.68612 6.37639,-7.12336 l -0.85273,5.33271 7.21279,-1.67667 c 9.53756,-2.21708 9.57758,-2.25199 11.42846,-9.96734 1.54582,-6.44368 3.32287,-9.12158 4.96402,-7.48043 0.43264,0.43263 -0.28731,5.44272 -1.59988,11.13352 -2.80114,12.1447 -5.85962,29.158799 -5.96015,33.155879 -0.0706,2.80759 -0.0653,2.80789 10.92935,0.6165 l 10.999999,-2.19246 0.66666,-8.51237 c 0.40037,-5.11207 1.33242,-8.731499 2.33334,-9.060939 1.2945,-0.42609 1.66666,5.166889 1.66666,25.047249 v 25.59584 l 5.66667,-0.74825 c 3.11667,-0.41155 8.81667,-1.13598 12.66667,-1.60986 l 7,-0.86158 v -9.20822 c 0,-5.24992 0.57316,-9.20821 1.33333,-9.20821 0.75213,0 1.33333,3.77777 1.33333,8.66667 v 8.66666 l 5.66667,-0.0181 c 12.25815,-0.0393 12.08755,0.20619 11.00501,-15.84217 -0.52457,-7.7768 -1.16156,-14.48583 -1.41553,-14.90897 -0.25396,-0.42314 -4.50048,-0.28312 -9.43669,0.31114 -4.93623,0.59426 -9.26497,0.79047 -9.61943,0.43601 -1.35843,-1.35843 1.24553,-2.28173 9.02065,-3.19849 4.43391,-0.5228 8.4002,-1.28909 8.81396,-1.70285 1.0107,-1.01069 -0.8049,-24.420059 -2.05026,-26.435089 -0.75508,-1.22174 -4.77534,-1.07449 -17.28265,0.63304 -8.96427,1.22383 -17.73267,2.77034 -19.48533,3.4367 -1.75266,0.66636 -7.1737,1.62005 -12.04677,2.11931 -7.281499,0.74601 -8.751249,0.57472 -8.249019,-0.96135 0.33818,-1.03429 3.84211,-2.49416 7.845259,-3.26862 6.2052,-1.20048 7.29465,-1.86423 7.65965,-4.66667 1.0863,-8.34061 5.63817,-28.17186 7.47575,-32.56982 2.51548,-6.0204 5.19814,-5.02657 3.97863,1.47395 l -0.86858,4.62997 7.16101,-0.91457 c 3.93855,-0.50302 7.32373,-1.04601 7.52261,-1.20666 0.19888,-0.16065 0.85017,-4.35038 1.44731,-9.31051 l 1.08571,-9.01841 -6.78064,0.85658 c -3.72936,0.47112 -7.91607,0.99213 -9.30381,1.1578 -1.38774,0.16566 -2.77193,-0.40135 -3.07597,-1.26003 -0.36068,-1.01864 2.13805,-1.86752 7.18983,-2.44255 11.55966,-1.3158 12.21886,-1.67067 13.76429,-7.40996 0.77796,-2.88917 2.03177,-5.25299 2.78625,-5.25299 0.75449,0 1.03136,1.2 0.61528,2.66667 -0.41609,1.46667 -1.09695,3.86667 -1.51304,5.33333 -0.6504,2.29261 -0.11973,2.66667 3.78263,2.66667 h 4.53913 l 1.55264,14.33333 c 0.85395,7.88334 1.55177,15.38334 1.55071,16.66667 -0.004,4.16528 -2.48718,2.4626 -2.91744,-2 -0.39503,-4.09703 -0.70864,-4.33333 -5.75115,-4.33333 h -5.33333 l -0.38246,13.06963 -0.38245,13.06963 5.04912,-0.81312 c 2.77701,-0.44721 6.32364,-1.07103 7.88137,-1.38626 3.46776,-0.70176 3.50334,-0.50812 6.62426,36.060119 1.25173,14.66667 2.66912,27.1197 3.14974,27.67339 0.48063,0.55371 4.59084,0.61823 9.1338,0.1434 8.19192,-0.85623 8.25923,-0.89747 8.17323,-5.00673 -0.0477,-2.27887 -0.79771,-8.94339 -1.66667,-14.81006 l -1.57994,-10.66666 -7.66667,0.46343 c -9.92745,0.60009 -10.19469,-1.95569 -0.33333,-3.18779 5.97092,-0.74602 7.33333,-1.38312 7.33333,-3.42928 0,-1.38216 0.53097,-2.51303 1.17995,-2.51303 1.18944,0 3.35049,12.90208 4.99821,29.84061 l 0.8924,9.17395 8.79805,-0.83113 c 4.83894,-0.45712 10.74806,-0.8354 13.13139,-0.84062 4.0754,-0.009 4.33333,-0.29193 4.33333,-4.75484 0,-2.82404 0.53984,-4.4117 1.33334,-3.9213 0.73333,0.45322 1.33333,2.50137 1.33333,4.55142 v 3.72739 l 18.33333,0.89177 c 10.08334,0.49049 21.88154,1.26636 26.21822,1.72417 6.65556,0.70259 7.76595,0.52244 7.12205,-1.15552 -1.66104,-4.3286 -2.69618,-17.44994 -1.30898,-16.59261 0.76205,0.47098 1.81085,4.00565 2.33065,7.85484 1.2602,9.33195 2.66059,11.66232 7.01831,11.67917 1.99086,0.008 10.79924,1.47823 19.57416,3.26784 8.7749,1.7896 16.19892,3.00928 16.4978,2.7104 0.82688,-0.82686 -3.60628,-25.8326 -5.06196,-28.55256 -1.16551,-2.17778 -16.57115,-6.70321 -17.98982,-5.28455 -0.29344,0.29345 0.31204,4.12859 1.34552,8.52254 2.18571,9.29269 2.3317,11.32233 0.81446,11.32233 -0.60844,0 -2.13402,-4.78273 -3.39016,-10.62828 l -2.28391,-10.62828 -6.60984,-0.87683 c -3.6354,-0.48225 -6.60983,-1.48108 -6.60983,-2.21961 0,-0.82367 2.31104,-1.02603 5.9778,-0.52345 l 5.97779,0.81935 -3.14368,-8.35201 c -5.60837,-14.900079 -9.72235,-21.862329 -13.47492,-22.804169 -1.89532,-0.47569 -3.08005,-1.4571 -2.63272,-2.18089 0.44733,-0.7238 1.39592,-0.95594 2.10797,-0.51586 0.78698,0.48637 0.97755,-0.68149 0.486,-2.97825 l -0.80865,-3.77839 3.08855,3.59939 c 2.05562,2.39564 4.99352,3.90341 8.78474,4.50847 7.57435,1.20882 9.07663,3.70643 1.81271,3.0137 -3.02991,-0.28895 -5.50879,-0.50951 -5.50861,-0.49013 1.7e-4,0.0194 2.91032,6.90713 6.467,15.30611 l 6.46669,15.270869 8.30609,1.84493 c 4.56835,1.01471 8.59142,1.5596 8.94015,1.21087 1.25507,-1.25507 -7.59792,-21.856959 -13.51963,-31.461699 -3.32678,-5.39589 -9.97309,-14.5158 -14.76956,-20.26646 -8.78182,-10.52885 -13.1272,-13.17487 -21.66976,-13.19528 -3.07436,-0.007 -3.06089,0.0571 1.11204,5.3259 5.45114,6.88262 2.51338,6.94253 -3.81884,0.0779 -4.20554,-4.55917 -5.81941,-5.35875 -12.18116,-6.03509 l -7.33333,-0.77963 4.66666,2.58758 c 17.63462,9.77809 30.67825,31.30588 30.65923,50.601389 -0.0107,10.56704 -2.08666,16.90644 -7.49938,22.89767 -17.57302,19.45122 -51.76841,6.67084 -66.87899,-24.99573 -4.51927,-9.470829 -4.93702,-11.320849 -4.89712,-21.687409 0.0592,-15.38383 4.4991,-23.78911 15.56314,-29.46309 5.50238,-2.82178 17.26066,-3.40586 23.18903,-1.1519 2.64325,1.00496 3.90551,0.96002 4.60005,-0.16379 0.5573,-0.90173 2.97095,-1.31369 5.7773,-0.98607 2.65104,0.3095 4.82008,0.15616 4.82008,-0.34073 0,-0.98192 -10.80758,-9.3993 -19.30951,-15.03903 -2.92024,-1.93713 -7.03863,-3.52205 -9.15197,-3.52205 -3.68095,0 -3.45778,0.35844 5.3095,8.52769 5.03359,4.69024 8.73591,8.9563 8.22739,9.48015 -0.50852,0.52384 -4.10852,-2.00125 -8,-5.61132 -11.14175,-10.33604 -14.36937,-12.39652 -19.41848,-12.39652 -4.01503,0 -4.41977,0.27755 -2.96352,2.03222 3.69081,4.44716 -0.19759,3.19913 -7.03303,-2.25735 -3.97888,-3.17618 -8.38018,-6.4545 -9.78068,-7.28516 -1.4005,-0.83066 -2.08728,-1.98975 -1.52617,-2.57576 0.56112,-0.58601 3.72865,0.84362 7.03899,3.17695 3.31033,2.33334 7.6159,4.24243 9.56797,4.24243 3.39063,0 3.43365,-0.0845 0.96311,-1.89098 -4.35643,-3.18551 -1.01115,-3.95408 4.09568,-0.94098 3.16538,1.86763 7.06578,2.83196 11.45432,2.83196 7.5363,0 14.34728,3.73648 28.89157,15.84986 7.5714,6.30592 8.89987,6.92827 14,6.55858 l 5.63483,-0.40844 -12,-8.04174 c -6.6,-4.42296 -14.1,-8.82251 -16.66667,-9.77678 -2.56667,-0.95427 -5.56667,-2.28692 -6.66667,-2.96144 -9.89029,-6.06474 -29.60421,-10.77246 -48.33333,-11.54208 -15.69872,-0.6451 -17,-0.51611 -17,1.68505 0,2.27292 -0.1248,2.27062 -2.68853,-0.0495 -2.44032,-2.20845 -3.49463,-2.28456 -11.41956,-0.82433 -18.015,3.31939 -50.973949,16.01466 -49.166999,18.93836 0.37669,0.6095 -5.60052,7.43179 -13.28268,15.16065 -7.69403,7.74079 -14.35031,13.4332 -14.81969,12.67372 -0.98131,-1.5878 0.46606,-3.70832 7.91445,-11.59528 2.94336,-3.11666 4.55333,-5.66666 3.57771,-5.66666 -1.72024,0 -24.51823,21.37425 -23.68583,22.20665 0.22793,0.22793 2.45048,-0.16952 4.939,-0.88322 6.86713,-1.96947 7.58434,0.16743 2.71323,8.08399 -3.65579,5.94142 -10.74777,20.52924 -10.74777,22.10758 0,0.28409 2.4,0.13275 5.33334,-0.33632 7.9294,-1.26796 7.17036,2.466229 -1,4.919589 -5.66835,1.70206 -6.53902,2.49673 -8.29223,7.5684 -2.46004,7.11641 -6.0768,7.84471 -4.96606,1 0.41651,-2.56666 0.54476,-4.66666 0.285,-4.66666 -0.25977,0 -3.15965,1.15193 -6.44419,2.55984 -6.50036,2.78639 -7.08468,3.86814 -10.861,20.10682 -2.92533,12.57931 -3.03757,12.40098 5.44438,8.64986 4.12458,-1.82408 8.2325,-3.31652 9.12871,-3.31652 1.23217,0 1.4709,4.116 0.97913,16.88157 -0.62201,16.14667 -0.54055,16.83921 1.8713,15.90859 1.38689,-0.53514 9.12162,-2.96327 17.18829,-5.39584 z M 170.2153,82.674501 c -0.38824,-1.1 -2.56809,-10.26104 -4.84411,-20.35788 -2.27601,-10.09683 -5.59741,-22.64812 -7.38089,-27.89176 -3.33009,-9.79089 -3.31049,-13.00259 0.0501,-8.20469 1.6374,2.3377 2.76306,2.58772 8.04303,1.78642 6.06136,-0.91989 6.18668,-0.86241 9.88823,4.53477 5.32185,7.75976 12.43688,22.24427 11.4242,23.25695 -0.46968,0.46969 -1.43878,-0.19102 -2.15355,-1.46825 -1.02591,-1.83308 -3.11119,-2.32223 -9.90005,-2.32223 -5.45084,0 -8.60042,0.54601 -8.60042,1.49095 0,0.82002 1.03519,6.52002 2.30042,12.66667 l 2.3004,11.17572 h 4.36626 c 2.40144,0 4.36626,0.6 4.36626,1.33333 0,0.73333 -1.47019,1.33333 -3.26708,1.33333 -1.7969,0 -3.85655,1.05 -4.577,2.33334 -1.10552,1.96923 -1.42007,2.02125 -2.01583,0.33333 z m 11.19324,-34.82558 c 0,-0.82074 -2.14344,-5.02074 -4.7632,-9.33334 -4.01729,-6.61317 -5.35741,-7.84108 -8.55763,-7.84108 -7.52921,0 -8.03733,0.73407 -5.83982,8.43664 1.08217,3.79318 2.2172,7.64669 2.52228,8.56336 0.7209,2.16612 16.63837,2.33297 16.63837,0.17442 z m -105.834329,17.7603 c -0.92461,-1.49604 9.68616,-17.27793 16.13517,-23.99861 3.9062,-4.07074 6.40217,-5.4449 11.152439,-6.13999 4.54633,-0.66525 7.27058,-2.08267 10.59489,-5.51248 3.94997,-4.07534 7.95183,-6.02016 7.95183,-3.86443 0,0.4139 -2.55,3.70854 -5.66667,7.32141 -3.11666,3.61287 -7.9471,10.32423 -10.73431,14.91412 l -5.067639,8.34526 3.480019,0.42953 c 6.40495,0.79053 2.56098,3.54501 -8.118379,5.81739 -17.08296,3.63495 -18.98207,3.8937 -19.72735,2.6878 z m 18.0453,-6.90291 c 1.16313,-0.0422 10.745229,-17.52005 10.008899,-18.25638 -1.93494,-1.93494 -7.791659,2.20208 -13.527249,9.55528 -8.52561,10.93007 -8.62823,11.34877 -2.42882,9.9097 2.78824,-0.64723 5.46447,-1.1911 5.94717,-1.2086 z m 4.12236,93.147699 8.999999,-1.64044 V 135.62899 121.0444 l -5,0.9194 c -15.389809,2.82991 -17.399179,3.54377 -18.180979,6.45909 -0.43043,1.60506 -0.7908,8.23332 -0.80081,14.7295 -0.0179,11.58124 0.0402,11.7969 2.98179,11.07664 1.65,-0.40403 7.05,-1.47278 12,-2.37502 z m 140.664219,-20.1795 c -0.38142,-1.13922 -2.87934,-1.52667 -7.89299,-1.22431 -4.54717,0.27424 -9.21031,-0.3412 -12.26916,-1.61927 -2.71381,-1.13389 -4.58245,-1.49252 -4.15256,-0.79692 2.30943,3.73674 25.50993,7.21042 24.31471,3.6405 z m 6.90984,-1.61878 c 19.08623,-9.86987 17.51424,-42.848039 -3.04631,-63.907439 -8.19083,-8.38956 -18.4418,-13.97957 -27.63168,-15.06797 -5.50859,-0.65241 -6.56273,-0.42618 -6.56273,1.40846 0,1.43367 1.1297,2.18572 3.28332,2.18572 10.86388,0 27.91728,11.97885 33.98467,23.87191 2.39985,4.70411 3.32802,5.46121 5.79478,4.72678 2.69179,-0.80142 2.74154,-0.7237 0.59536,0.93008 -1.95709,1.50807 -2.12138,2.56986 -1,6.46243 2.13451,7.40929 1.57008,20.044139 -1.16434,26.063969 -1.34622,2.96367 -4.37208,7.00779 -6.72416,8.98693 -2.35207,1.97913 -3.90205,4.20432 -3.44438,4.94484 1.08047,1.74823 1.43332,1.71211 5.91547,-0.60571 z m -10.57406,-3.12218 c 0,-0.59087 -1.5246,-3.14087 -3.38798,-5.66667 -3.19103,-4.32539 -3.84979,-4.59568 -11.33124,-4.6492 -6.65196,-0.0476 -8.07351,0.35356 -8.74447,2.46756 -1.00835,3.17702 0.46033,4.64578 6.96341,6.9638 5.65555,2.01592 16.50028,2.59725 16.50028,0.88451 z m -161.381469,-3.55959 5.95187,-1.51582 1.83719,-13.02499 c 1.01045,-7.16374 1.59096,-13.271209 1.29002,-13.572149 -1.26864,-1.26864 -16.01725,2.85275 -17.03869,4.761329 -1.00679,1.88119 -5.32558,22.55363 -5.32558,25.49154 0,0.66629 1.65,0.79845 3.66666,0.29368 2.01667,-0.50477 6.34501,-1.59989 9.61853,-2.43359 z M 243.2534,121.33733 c 5.77312,-6.39015 6.07273,-9.00497 1.15514,-10.08099 -2.01666,-0.44127 -5.24531,-1.29661 -7.17475,-1.90076 -2.94432,-0.92193 -3.94068,-0.51332 -6.20006,2.54266 l -2.69199,3.64112 4.20007,5.51769 c 2.31004,3.03473 4.58025,5.54013 5.04492,5.56757 0.46466,0.0274 3.01466,-2.35184 5.66667,-5.28729 z m -33.60298,-3.66282 c 0.7386,-3.11703 -9.96149,-13.74269 -12.35151,-12.26558 -1.93057,1.19315 -1.12792,2.57372 5.9683,10.26558 4.56504,4.9482 5.60724,5.27475 6.38321,2 z m 14.42479,-4.33334 c 0,-0.73333 0.86597,-1.33333 1.9244,-1.33333 3.46914,0 6.0756,-5.60899 6.0756,-13.074449 0,-5.09359 -0.47499,-6.98945 -1.65278,-6.59685 -1.0158,0.3386 -1.49402,2.39352 -1.24088,5.33187 0.81395,9.447519 -6.31709,16.901669 -14.38764,15.039539 -2.56288,-0.59134 -2.89946,-0.4523 -1.38537,0.5723 2.58711,1.75072 10.66667,1.79686 10.66667,0.0609 z m -0.0968,-6.17981 c 9.35585,-11.893999 -7.38924,-33.567719 -18.92424,-24.494289 -2.8935,2.27601 -3.64563,3.97521 -3.64563,8.23603 0,14.832399 15.12259,25.725979 22.56989,16.258259 z m 25.43013,-5.03488 c 0,-4.072819 -1.19117,-10.314719 -2.73532,-14.333329 -3.67464,-9.56323 -11.29809,-19.94462 -13.91007,-18.94232 -1.10328,0.42337 -1.71758,1.23637 -1.36512,1.80667 0.35247,0.57029 -0.5631,2.56747 -2.0346,4.43817 l -2.67544,3.40127 3.70819,5.84719 3.70817,5.8472 4.47387,-1.82553 c 2.46063,-1.00404 4.74427,-1.55512 5.07476,-1.22463 0.3305,0.33049 -1.5393,1.30722 -4.15511,2.17051 -4.73809,1.56372 -4.756,1.59926 -4.756,9.44083 0,7.501819 0.17207,7.909139 3.66667,8.679889 2.01667,0.44478 4.26667,1.00884 5,1.25347 5.09098,1.69826 6,0.70449 6,-6.55939 z m -213.091489,0.50169 c 4.02177,-1.43921 5.31594,-2.858269 7.16374,-7.855099 1.24038,-3.35421 3.97925,-9.35087 6.08638,-13.3259 2.10713,-3.97504 3.5983,-7.46019 3.3137,-7.74478 -0.28459,-0.28459 -2.56713,0.33898 -5.07232,1.38572 -3.35903,1.40349 -5.98333,4.31198 -9.99563,11.0781 -6.90014,11.63601 -10.34545,19.686399 -8.06101,18.835529 0.91115,-0.33937 3.86546,-1.40748 6.56514,-2.37357 z m 162.410399,1.04634 c -0.008,-0.18334 -0.88748,-3.21068 -1.95452,-6.727439 -1.06704,-3.51675 -1.61503,-8.0194 -1.21772,-10.00587 0.5404,-2.70202 -0.0999,-4.38416 -2.54175,-6.67823 -4.34927,-4.08592 -5.33868,-1.57766 -3.43655,8.71195 1.69144,9.14981 4.50883,15.032919 7.1992,15.032919 1.08118,0 1.95927,-0.15 1.95134,-0.33333 z m -11.6676,-16.881279 c -0.36262,-5.06803 -0.2486,-11.40383 0.25337,-14.07955 1.14721,-6.11516 8.7986,-14.73775 14.84995,-16.73487 4.16914,-1.37595 6.52362,-5.30431 3.17916,-5.30431 -1.98567,0 -9.47664,3.92032 -12.409,6.49412 -6.94028,6.09164 -10.33336,20.4651 -7.5601,32.02538 0.89904,3.74761 1.79466,6.81384 1.99027,6.81384 0.19561,0 0.0589,-4.14658 -0.30365,-9.21461 z m 13.31984,-1.9494 c 0.91129,-2.34565 3.22837,-4.55775 5.97694,-5.70618 4.02356,-1.68115 5.08299,-1.61262 10.22355,0.66129 3.61605,1.59955 6.86137,4.35957 8.784,7.47044 2.08635,3.3758 3.48157,4.50124 4.41859,3.56423 1.77741,-1.77741 -4.46743,-10.10827 -10.19534,-13.60098 -4.63797,-2.8281 -11.59229,-3.32268 -15.71276,-1.11747 -3.25326,1.74109 -6.5238,9.09066 -6.31146,14.18318 0.11146,2.67366 0.31852,2.96486 0.74145,1.04283 0.32273,-1.46667 1.25649,-4.39047 2.07503,-6.49734 z m -67.97115,-3.70238 c 1.95953,-1.0308 2.33333,-3.15769 2.33333,-13.27647 v -12.04903 l -7.66666,0.91457 c -4.21667,0.50302 -8.07007,1.29619 -8.56311,1.76261 -0.97184,0.91937 -5.10356,20.01678 -5.10356,23.58941 0,1.89536 1.11168,2.06034 8.33333,1.23674 4.58334,-0.52271 9.38334,-1.50274 10.66667,-2.17783 z m 69.06564,-5.46695 c 4.84847,-4.0252 5.22133,-4.83109 5.24365,-11.33333 0.0133,-3.85 -0.3154,-7 -0.73028,-7 -3.48244,0 -12.01418,7.0943 -14.67025,12.19858 -1.64533,3.1619 -1.55208,3.89524 0.89012,7 1.5004,1.90745 3.0248,3.46808 3.38757,3.46808 0.36276,0 3.0084,-1.95 5.87919,-4.33333 z m 26.77111,-0.58928 c 1.55274,-1.91423 1.55126,-2.08808 -0.009,-1.14774 -1.27898,0.77047 -1.63454,0.54371 -1.16666,-0.74405 0.37013,-1.01874 1.22528,-1.74316 1.90032,-1.60981 0.67504,0.13334 1.20004,-1.36666 1.16666,-3.33334 -0.0504,-2.96658 -1.29398,-4.20046 -7.29976,-7.24245 -3.98189,-2.01666 -8.93189,-3.66666 -11.00038,-3.66666 -3.6698,0 -3.76092,0.17767 -3.76092,7.33333 0,7.10015 0.11653,7.33477 3.66666,7.37858 2.01667,0.0249 6.06667,1.20452 9,2.62142 2.93334,1.4169 5.40987,2.59654 5.50342,2.62143 0.0936,0.0249 0.99353,-0.96994 2,-2.21071 z m -80.79278,-24.48186 c 0.4774,-0.77247 0.45391,-4.97247 -0.0523,-9.33334 -0.83643,-7.20705 -1.20943,-7.92885 -4.09722,-7.92885 -3.44853,0 -3.97289,1.29712 -4.9857,12.33333 l -0.58123,6.33333 h 4.4242 c 2.43331,0 4.8148,-0.63201 5.29221,-1.40447 z"
       id="path22" />
  </g>
  <g
     inkscape:groupmode="layer"
     id="layer1"
     inkscape:label="0">
    <path
       style="fill:#696969;stroke-width:0.783392"
       d="m 133.3384,290.34109 c -1.51137,-0.29653 -3.62653,-1.41215 -4.70036,-2.47917 -1.07382,-1.06701 -5.16184,-3.5941 -9.08447,-5.61576 -7.49114,-3.86078 -10.30144,-6.07021 -7.72104,-6.07021 0.76905,0 3.0155,1.03262 4.99212,2.29472 4.57189,2.91921 7.53588,3.70757 8.12893,2.16214 1.16793,-3.04358 -7.13662,-9.18423 -12.32653,-9.11462 -4.70562,0.0632 -10.17356,2.36955 -10.46834,4.41565 -0.19472,1.3516 1.16591,2.60551 6.99227,6.44388 3.97871,2.62114 6.75683,4.76572 6.1736,4.76572 -0.58324,0 -4.9636,-1.22211 -9.73414,-2.71579 -8.650588,-2.70855 -12.577826,-4.65475 -11.831054,-5.86305 0.722842,-1.16959 -2.69267,-4.59987 -10.850647,-10.89759 -4.445106,-3.43149 -10.162288,-8.15563 -12.70485,-10.49808 -6.794393,-6.25963 -9.714888,-7.39502 -9.714888,-3.77681 0,1.57713 11.693922,13.15378 17.429174,17.25439 2.045896,1.46278 3.560058,2.81935 3.364804,3.01461 -0.787416,0.78742 -23.927546,-14.17783 -23.927546,-15.47448 0,-0.3958 0.352526,-0.93751 0.783392,-1.2038 1.222807,-0.75574 0.919654,-3.30535 -0.455767,-3.83315 -0.681539,-0.26153 -2.25501,-0.47551 -3.496604,-0.47551 -2.614386,0 -10.046093,-6.51258 -16.945203,-14.84948 -4.579214,-5.53354 -4.546297,-6.4132 0.291905,-7.80078 2.153649,-0.61766 2.693501,-0.4161 4.745484,1.7718 1.273462,1.35781 3.452439,4.15987 4.842172,6.22679 3.452426,5.13473 7.621743,9.16793 9.477342,9.16793 0.847369,0 1.540671,-0.15332 1.540671,-0.3407 0,-1.35143 -2.335395,-5.64406 -7.112683,-13.07363 -6.424752,-9.99168 -15.131918,-26.75562 -16.797789,-32.34085 -0.776561,-2.60361 -0.893209,-4.14883 -0.361553,-4.78943 0.431686,-0.52015 3.633314,-1.75678 7.114729,-2.74807 7.234653,-2.05998 6.999511,-2.17902 9.003537,4.55815 1.480365,4.97672 4.462438,8.83093 5.808762,7.5076 0.673249,-0.66175 0.105693,-4.18581 -2.271005,-14.10106 -3.468865,-14.47162 -5.568095,-25.68584 -5.568095,-29.74511 0,-3.05148 0.489024,-3.38614 9.014818,-6.16924 9.777448,-3.19168 9.349242,-3.46056 10.879892,6.83184 2.454023,16.50135 5.331767,31.52052 7.017254,36.62358 1.340228,4.05775 2.039876,5.1429 3.44448,5.34238 1.500592,0.21312 1.762632,-0.10838 1.762632,-2.16262 0,-2.06925 -2.409549,-14.31402 -3.572609,-18.15515 -0.299748,-0.98996 0.04397,-1.18434 1.576246,-0.89143 1.077772,0.20603 6.033187,-0.24119 11.012032,-0.99382 4.978845,-0.75263 9.161707,-1.2328 9.295247,-1.06705 0.133541,0.16575 1.503206,6.64684 3.0437,14.40243 3.09976,15.60566 3.94451,18.40971 5.5461,18.40971 2.97871,0 9.63944,-1.73521 10.68839,-2.78447 1.05534,-1.05565 1.05688,-1.27257 0.0137,-1.93222 -0.6463,-0.40868 -2.48894,-0.74846 -4.09475,-0.75506 -4.02493,-0.0165 -4.96541,-1.75314 -7.2711,-13.42613 -2.90016,-14.68258 -2.62388,-16.35076 2.70937,-16.35913 4.00934,-0.006 8.42491,-1.39577 8.97278,-2.8235 0.93874,-2.44631 -0.39048,-2.86549 -7.84936,-2.47534 -6.25604,0.32723 -7.37176,0.20003 -7.70279,-0.87818 -0.57619,-1.87669 -1.99736,-17.89204 -1.99812,-22.51691 -5.6e-4,-3.44576 0.23842,-4.08396 1.66938,-4.45816 3.67316,-0.96055 21.01067,-3.17839 21.44569,-2.74336 0.25579,0.25579 1.12925,5.17702 1.94101,10.93606 1.58876,11.27137 2.08047,13.21287 3.34636,13.21287 0.55571,0 0.62296,-3.19212 0.2104,-9.98825 -1.04429,-17.20297 -1.40527,-15.3477 3.11389,-16.00421 17.93291,-2.60518 83.79105,-4.79225 88.65222,-2.94403 2.88758,1.09785 3.37006,1.99828 3.38436,6.31605 0.0172,5.19439 0.82446,8.51939 2.0684,8.51939 0.83798,0 1.07716,-1.64428 1.07716,-7.40532 v -7.40532 l 3.72111,0.3423 c 2.04662,0.18827 6.4586,0.55477 9.80441,0.81445 7.23414,0.56147 8.37355,1.42733 8.50546,6.46347 0.29751,11.35935 1.15622,20.01744 2.01339,20.30034 1.5507,0.51178 2.06303,-4.87556 1.49209,-15.69026 l -0.53663,-10.1649 4.14717,0.52349 c 7.84379,0.99011 13.27274,2.26613 14.38849,3.38187 1.24021,1.24022 1.5031,11.2123 0.60107,22.80064 l -0.50739,6.51854 -5.8316,-0.54646 c -5.43267,-0.50908 -5.81223,-0.44597 -5.54866,0.92266 0.22345,1.16032 1.68036,1.75565 6.93123,2.83228 17.96148,3.68279 21.14105,4.58709 21.14105,6.01273 0,1.83745 -6.41519,20.88789 -8.17002,24.26157 l -1.37836,2.64991 -4.74218,-0.49566 c -6.17126,-0.64502 -6.71708,-1.16684 -6.25462,-5.97969 0.61856,-6.43746 -1.46516,-5.07615 -4.49735,2.93817 -3.36129,8.88416 -10.03331,21.7903 -17.10833,33.09383 -3.09983,4.95249 -5.63606,9.4472 -5.63606,9.98825 0,1.87245 2.17306,0.97214 4.26106,-1.76538 1.15327,-1.51201 3.51882,-3.47454 5.25678,-4.36118 2.7283,-1.39187 3.09338,-1.87723 2.67273,-3.55322 -0.36275,-1.44533 0.59992,-3.98323 3.76882,-9.93573 2.34083,-4.39702 5.05309,-9.93347 6.02726,-12.30323 0.97418,-2.36976 2.01117,-4.5886 2.30443,-4.93075 0.47421,-0.55326 10.89262,0.68371 11.58431,1.3754 0.84314,0.84314 -9.38961,16.69698 -15.94693,24.70694 -5.0352,6.15063 -17.06487,18.03864 -23.27372,22.99964 -8.05007,6.43215 -13.53203,8.09888 -7.00041,2.12839 2.92612,-2.67474 4.33301,-5.55235 2.7076,-5.53807 -1.78113,0.0157 -14.2969,10.74583 -14.2969,12.2572 0,0.52048 0.79318,1.086 1.76263,1.2567 1.29515,0.22805 -0.83449,1.57312 -8.02977,5.07155 -15.72904,7.64763 -30.79596,12.28869 -43.51489,13.40387 l -6.43529,0.56423 -0.40074,-4.99244 c -0.38531,-4.80015 -1.48648,-7.32568 -2.67562,-6.13654 -0.31097,0.31097 -0.71219,2.87077 -0.89161,5.68847 -0.21675,3.40396 -0.69066,5.26293 -1.41229,5.53984 -0.59734,0.22922 -3.48406,-1.03212 -6.41492,-2.80297 -5.33115,-3.22113 -8.20766,-3.96371 -9.19097,-2.37269 -0.28793,0.46588 0.46227,1.87598 1.66711,3.13357 l 2.19063,2.28652 -4.25938,-0.0901 c -2.34265,-0.0495 -5.49595,-0.3327 -7.00731,-0.62922 z m 44.85214,-6.27538 c 1.90931,-2.12362 4.76678,-6.3261 6.34993,-9.33883 1.58315,-3.01273 3.13826,-5.59368 3.4558,-5.73543 0.71509,-0.31922 5.70209,-19.96528 5.68316,-22.38856 -0.0165,-2.11939 -1.23506,-2.30517 -2.28251,-0.34801 -0.41639,0.77804 -2.01881,5.31755 -3.56093,10.0878 -2.67281,8.26782 -2.91789,8.69598 -5.24384,9.16117 -4.06616,0.81323 -7.99487,0.54339 -10.40767,-0.71484 -1.25844,-0.65626 -2.56724,-0.91403 -2.90844,-0.57284 -0.77831,0.77831 -2.59008,15.7935 -1.97937,16.40421 1.26991,1.2699 2.67766,-0.7696 3.12224,-4.52336 0.64386,-5.43638 1.83578,-6.52395 7.14991,-6.52395 2.34924,0 4.49393,0.22258 4.76597,0.49462 0.57295,0.57296 -4.09135,8.13589 -7.95517,12.89893 -1.45692,1.79598 -2.64894,3.64674 -2.64894,4.11281 0,2.05741 3.27358,0.53019 6.45986,-3.01372 z m 23.82624,-5.42463 c 5.07934,-4.04398 16.0179,-15.50702 22.16237,-23.22502 5.29812,-6.6549 9.89315,-15.31421 9.15172,-17.24634 -0.35368,-0.92166 -2.07519,-1.16338 -8.28555,-1.16338 h -7.83912 l 0.764,-2.00948 c 0.98462,-2.58973 0.98269,-5.82444 -0.003,-5.82444 -0.94667,0 -3.14882,4.25261 -6.26727,12.10285 -2.99867,7.5487 -5.85452,13.20658 -10.90357,21.6016 -4.47746,7.44462 -4.92149,9.07778 -2.23403,8.21671 2.83814,-0.90934 6.85468,-1.40004 6.85468,-0.83744 0,0.28531 -2.11516,2.47701 -4.70035,4.87045 -7.02271,6.50179 -5.98241,9.31293 1.30058,3.51449 z m -62.51726,-5.84563 c 4.43814,-1.45399 3.67267,-3.13693 -1.8464,-4.05945 -2.58519,-0.43212 -5.16937,-1.0884 -5.7426,-1.45839 -1.61121,-1.03996 -10.40984,-19.44517 -10.15303,-21.23838 0.18744,-1.30887 0.9911,-1.67355 4.53645,-2.05851 6.07085,-0.6592 7.97035,-1.38488 7.66549,-2.9285 -0.28562,-1.44626 -3.18462,-1.65061 -10.89108,-0.76772 l -4.40067,0.50417 -0.9745,-3.2621 c -1.65851,-5.55176 -3.82321,-9.13754 -5.51622,-9.13754 -1.93705,0 -2.08099,3.0008 -0.37578,7.83392 0.6463,1.8318 1.17509,3.58096 1.17509,3.88702 0,0.30605 -2.11516,1.14453 -4.70035,1.86327 -3.71894,1.03396 -4.70035,1.63015 -4.70035,2.85539 0,1.93671 2.40337,2.60278 8.08547,2.2408 l 4.24893,-0.27069 4.80029,10.78168 c 2.64015,5.92993 4.80029,11.12969 4.80029,11.55503 0,0.42535 -0.71612,0.77336 -1.59137,0.77336 -2.02042,0 -2.81812,1.98788 -1.45621,3.62888 0.87736,1.05715 2.09677,1.17339 7.61363,0.72575 3.61293,-0.29314 7.85324,-0.95374 9.42292,-1.46799 z m 14.96116,-1.76984 c 8.05317,-0.91111 7.11844,-3.43417 -1.27997,-3.45498 l -4.84061,-0.012 -1.19485,-4.11281 c -3.75265,-12.91714 -4.59092,-20.41425 -2.37752,-21.26361 2.04156,-0.78343 8.03097,-0.53716 8.58102,0.35283 0.28156,0.45558 0.95874,5.34585 1.50484,10.86726 1.04386,10.55415 1.38469,11.80616 3.21397,11.80616 1.44712,0 1.43751,-2.87651 -0.0537,-16.05954 -0.63358,-5.60125 -1.1555,-10.44849 -1.1598,-10.77164 -0.004,-0.32315 -3.09243,-0.58972 -6.86251,-0.59237 -4.54848,-0.003 -7.60961,-0.39855 -9.09856,-1.17509 -1.23416,-0.64364 -2.43085,-1.17026 -2.65933,-1.17026 -1.32455,0 1.94081,17.15756 5.7772,30.35592 1.29778,4.46472 3.04767,6.77963 4.65784,6.16175 0.56164,-0.21553 3.16803,-0.63476 5.79195,-0.93162 z m -63.695235,-7.01165 c 0.431106,-1.12344 -1.382205,-4.23497 -5.354267,-9.18758 -2.27879,-2.84133 -1.312575,-3.73526 4.618608,-4.27308 l 4.653452,-0.42196 3.781219,5.38423 c 2.079673,2.96132 4.675193,6.35368 5.767823,7.53856 1.95654,2.12174 5.61042,2.96808 5.61042,1.29953 0,-0.47015 -2.36192,-4.61233 -5.24872,-9.20486 -5.610069,-8.9249 -11.824414,-20.80521 -17.417948,-33.29885 -1.899542,-4.24279 -3.879115,-7.87741 -4.399052,-8.07693 -1.213571,-0.46569 -17.125582,3.10712 -20.944578,4.70279 -1.600602,0.66878 -2.910185,1.76333 -2.910185,2.43234 0,2.11848 8.207841,17.17915 13.998963,25.68688 6.176708,9.07418 14.507595,18.61343 16.255622,18.61343 0.62165,0 1.336539,-0.53753 1.588643,-1.1945 z m 82.115645,-20.52938 c 0.29733,-1.18464 0.9533,-2.41641 1.45772,-2.73728 0.50443,-0.32087 4.89908,-0.5888 9.7659,-0.5954 8.34253,-0.0113 8.95879,-0.122 10.77164,-1.93487 1.05758,-1.05757 1.94275,-2.20329 1.96705,-2.54602 0.0243,-0.34273 0.82148,-6.96863 1.77152,-14.72421 l 1.72734,-14.10106 7.43334,-0.19498 c 9.18566,-0.24096 11.54907,-0.70273 10.25005,-2.00271 -0.5961,-0.59655 -4.57772,-1.03448 -10.98139,-1.20783 l -10.04621,-0.27197 -0.53273,5.36401 c -0.84807,8.53896 -2.82633,24.04627 -3.24576,25.44307 -0.49856,1.66029 -3.65438,2.24762 -12.07698,2.24762 h -6.84349 l -0.494,-4.11281 c -0.27171,-2.26204 -0.49707,-8.9485 -0.50082,-14.85879 l -0.007,-10.74599 8.74933,-0.2215 c 5.59222,-0.14158 8.85459,-0.53886 9.04104,-1.101 0.16044,-0.48372 -0.51589,-1.09583 -1.50296,-1.36024 -2.67803,-0.71738 -21.37701,-0.55213 -27.5519,0.24348 -5.78495,0.74537 -7.17797,0.53637 -7.83488,-1.17552 -0.23051,-0.60068 -1.34896,-10.83679 -2.48545,-22.74691 -2.64058,-27.67228 -3.57356,-34.18037 -4.96581,-34.63938 -0.91374,-0.30125 -1.00197,1.40201 -0.54465,10.51449 0.30015,5.98068 0.71345,11.44997 0.91846,12.15397 0.45426,1.55997 -1.19461,2.04135 -9.14263,2.66914 -3.19475,0.25234 -6.65464,0.6327 -7.68864,0.84524 l -1.87999,0.38643 0.50484,9.16048 c 0.57361,10.40814 2.77625,22.20651 4.23439,22.68145 1.31242,0.42747 1.26078,-2.26287 -0.31507,-16.4137 -0.71188,-6.39249 -1.09684,-11.82019 -0.85547,-12.06155 0.24136,-0.24137 3.82027,-0.64059 7.95314,-0.88716 5.67869,-0.33879 7.51431,-0.2122 7.51431,0.51822 0,0.53158 0.51753,5.25435 1.15006,10.49504 0.63254,5.24069 1.49986,13.68172 1.92737,18.75785 0.42752,5.07613 0.99895,9.58796 1.26986,10.02629 0.84508,1.36736 2.70323,-0.85922 2.70323,-3.23921 0,-2.64279 0.72795,-2.91632 8.61732,-3.23795 l 5.87544,-0.23953 0.60403,18.40739 c 0.33222,10.12406 0.77039,18.87039 0.97371,19.43628 0.53576,1.49118 1.68941,0.49786 2.31454,-1.99288 z m 67.2663,-17.24988 c 0.70562,-1.61575 2.30041,-5.75219 3.54397,-9.1921 2.51405,-6.95426 2.90568,-7.2403 10.09964,-7.37689 6.34912,-0.12055 4.85934,-2.41922 -2.32269,-3.58383 -1.60063,-0.25955 -3.08141,-0.74887 -3.29062,-1.08737 -0.20921,-0.33851 0.47402,-5.52462 1.51827,-11.52469 1.94308,-11.16452 2.51368,-21.82184 1.21146,-22.62666 -1.29186,-0.79841 -1.75186,1.02207 -3.61871,14.3213 -1.00859,7.18519 -2.1392,14.47408 -2.51246,16.19754 l -0.67863,3.13357 -7.00212,-0.13967 c -3.85115,-0.0768 -8.01633,-0.52577 -9.25594,-0.99768 -2.07105,-0.78843 -2.21476,-1.09478 -1.77197,-3.7773 0.26503,-1.6056 0.91417,-8.30516 1.44254,-14.88791 l 0.96067,-11.96863 8.64522,0.4614 c 5.36918,0.28655 9.08802,0.15878 9.81375,-0.33717 2.28476,-1.56138 -0.47731,-2.47118 -9.84651,-3.24337 -5.13703,-0.42338 -10.08688,-0.93759 -10.99969,-1.14267 -1.62063,-0.36412 -1.67117,-0.083 -2.14958,11.95461 -0.26946,6.78013 -0.71212,15.40419 -0.98369,19.16458 l -0.49376,6.83707 2.10679,0.801 c 1.15874,0.44055 4.75097,0.801 7.98274,0.801 9.79335,0 10.50175,1.24118 6.55633,11.48727 -1.29259,3.35682 -2.35017,6.90454 -2.35017,7.88382 0,2.76979 1.97402,2.09696 3.39516,-1.15722 z m -93.88652,-17.33335 c 1.42404,-0.30474 2.45208,-1.07971 2.62527,-1.97897 0.26644,-1.38358 -0.15869,-1.45104 -6.64927,-1.05522 -7.04154,0.42942 -9.67579,1.02294 -9.67579,2.18005 0,0.35317 0.61692,0.80335 1.37093,1.00039 2.0058,0.52417 9.61803,0.43387 12.32886,-0.14625 z m 54.5174,-28.38512 c -0.0282,-16.50582 -0.92293,-31.6775 -2.08538,-35.36261 -0.98505,-3.12272 -1.89023,-1.00376 -1.84057,4.30865 0.1682,17.99568 1.31922,48.9928 1.85121,49.85358 1.63191,2.64049 2.10409,-1.63806 2.07474,-18.79962 z m -28.55065,-1.0121 -0.51772,-7.36511 10.52183,-0.27296 c 5.78701,-0.15013 10.80498,-0.55652 11.15104,-0.9031 1.41343,-1.41552 -2.18389,-2.08838 -11.22591,-2.09974 -5.25267,-0.007 -9.72862,-0.30049 -9.94654,-0.65309 -0.21792,-0.3526 -0.78586,-5.3761 -1.26208,-11.16334 -0.92204,-11.20489 -1.89406,-15.22272 -3.19906,-13.22325 -0.69102,1.05874 -0.41606,12.62766 0.50639,21.30658 l 0.39551,3.72111 h -3.43535 c -4.38587,0 -8.3695,1.38124 -8.3695,2.90195 0,0.96992 1.0104,1.1318 5.63374,0.9026 l 5.63375,-0.27929 0.91536,6.36025 c 0.96359,6.69542 1.46959,8.13251 2.86347,8.13251 0.59102,0 0.69387,-2.26069 0.33507,-7.36512 z"
       id="path27" />
    <path
       style="fill:#696969;stroke-width:0.783392"
       d="m 77.474244,244.08313 c -4.242529,-5.04196 -12.260909,-19.89617 -11.273215,-20.88387 0.549856,-0.54985 14.045138,-4.31418 14.32941,-3.99699 0.119615,0.13347 7.54759,16.71291 10.98457,24.51786 0.220418,0.50054 -1.652097,1.21078 -4.647098,1.76263 -6.901529,1.27166 -7.180961,1.23002 -9.393667,-1.39963 z"
       id="path29" />
    <path
       style="fill:#696969;stroke-width:0.783392"
       d="m 75.812973,180.43357 c -1.031574,-3.28945 -4.414643,-27.40352 -3.918644,-27.93157 0.328692,-0.34993 13.212483,-3.02031 18.7982,-3.89624 l 4.003175,-0.62776 0.955577,9.84907 c 0.525567,5.41699 1.153302,11.47055 1.394965,13.45237 0.518648,4.25326 0.847484,4.04509 -9.887042,6.25896 -4.074046,0.84023 -8.222581,2.06184 -9.218967,2.7147 -1.422181,0.93184 -1.879465,0.97064 -2.127264,0.18047 z"
       id="path31" />
    <path
       style="fill:#696969;stroke-width:0.783392"
       d="m 279.90049,176.21121 c -2.76669,-0.60501 -5.15081,-1.22047 -5.29804,-1.3677 -0.14722,-0.14723 0.16369,-7.01988 0.69092,-15.27256 0.80877,-12.65957 1.14954,-15.00488 2.18021,-15.00488 1.9886,0 12.82119,3.16736 13.90289,4.06509 0.57353,0.47599 0.9905,2.53232 0.98224,4.844 -0.0179,5.01129 -1.97829,19.03405 -3.05797,21.87382 -0.92567,2.4347 -1.83,2.51765 -9.40025,0.86223 z"
       id="path33" />
    <path
       style="fill:#696969;stroke-width:0.783392"
       d="m 204.63315,265.31176 c 0,-0.37405 2.67153,-6.19074 5.93673,-12.92597 l 5.93673,-12.24588 h 6.20585 c 4.73357,0 6.20585,0.25472 6.20585,1.07369 0,1.11955 -8.37458,13.29617 -13.16949,19.14843 -1.52277,1.85855 -3.74792,3.88558 -4.94478,4.5045 -2.39986,1.24102 -6.17089,1.5131 -6.17089,0.44523 z"
       id="path35" />
    <path
       style="fill:#696969;stroke-width:0.783392"
       d="m 30.007532,189.014 c -0.663322,-1.74466 -4.771176,-20.73655 -4.771176,-22.05862 0,-1.74243 15.193399,-6.72587 16.505471,-5.4138 0.995924,0.99592 4.269065,22.35542 3.666417,23.92589 -0.507762,1.32321 -7.016003,4.0538 -11.802079,4.95168 -2.557607,0.47981 -2.938525,0.33107 -3.598633,-1.40515 z"
       id="path37" />
    <path
       style="fill:#696969;stroke-width:0.783392"
       d="m 29.419492,226.1605 c -2.344538,-1.58098 -12.845709,-20.43812 -12.764887,-22.92214 0.01956,-0.60113 1.855969,-1.97428 4.08091,-3.05145 2.224941,-1.07716 4.172877,-2.38613 4.328747,-2.90883 0.418249,-1.40255 -2.802525,-1.90062 -7.401626,-1.14458 l -4.048456,0.66551 -2.412951,-8.2943 C 9.8741055,183.94285 8.5637013,178.5382 8.2892195,176.49439 l -0.4990579,-3.71602 4.2185924,-1.88803 c 7.385657,-3.30545 7.558881,-3.3039 8.426454,0.0754 0.420433,1.63764 1.185214,5.09268 1.699513,7.67788 1.283201,6.45017 6.975584,23.84205 11.65992,35.62442 2.136893,5.37487 3.764107,9.89364 3.616029,10.04172 -0.770721,0.77072 -7.337454,2.29156 -7.991178,1.85073 z"
       id="path39" />
    <path
       style="fill:#696969;stroke-width:0.783392"
       d="m 24.272845,154.16263 c -0.09906,-0.32315 -0.187197,-7.51672 -0.195848,-15.98572 -0.0086,-8.469 -0.280659,-15.66695 -0.604462,-15.99544 -0.323803,-0.3285 -3.925995,0.72358 -8.004869,2.33797 -4.078874,1.61439 -7.7355804,2.73783 -8.1260133,2.49653 -1.1812078,-0.73003 2.5894043,-17.43783 5.3549393,-23.72805 1.407049,-3.20034 5.244365,-5.921865 10.756075,-7.628508 1.66222,-0.514689 1.733612,-0.349753 1.566785,3.619655 -0.155291,3.694923 10e-6,4.158923 1.391993,4.158923 1.157961,0 2.221034,-1.35805 4.074151,-5.204642 2.481803,-5.15157 2.563088,-5.22593 7.972537,-7.292996 5.752616,-2.198199 7.655322,-3.671485 6.712262,-5.197392 -0.390805,-0.63233 -2.129566,-0.775002 -5.551187,-0.455487 -2.740181,0.255879 -4.982146,0.337344 -4.982146,0.181018 0,-0.913952 6.69284,-14.605125 9.434096,-19.298804 5.864266,-10.04101 5.549609,-12.693743 -1.301069,-10.968722 -1.992792,0.501791 -3.763915,0.771689 -3.935829,0.599775 -0.33243,-0.332429 12.998001,-13.542188 17.933629,-17.771288 1.615746,-1.384455 2.93772,-2.282368 2.93772,-1.995364 0,0.287005 -2.467685,3.322236 -5.483745,6.744959 -5.33364,6.052788 -6.822345,9.346756 -4.224256,9.346756 1.676773,0 26.613704,-24.884808 27.638809,-27.581039 1.369784,-3.602802 19.410541,-11.333585 38.937023,-16.6852003 13.48094,-3.6947134 18.12704,-4.1478624 20.81155,-2.0298164 2.63337,2.07769 3.49923,2.068843 4.05106,-0.041392 0.43421,-1.6603839 0.62026,-1.677692 13.21319,-1.2291894 14.56919,0.5188877 27.55538,2.550078 37.85902,5.9215911 10.12779,3.313968 25.81208,11.214657 37.57288,18.926675 l 10.15469,6.658833 -3.81481,0.243448 c -5.23237,0.333912 -6.90076,-0.517578 -17.47852,-8.920451 -11.90528,-9.457454 -18.03767,-12.557244 -26.84362,-13.568881 -4.19449,-0.481868 -8.35109,-1.540929 -11.23143,-2.861656 -3.51425,-1.6114005 -4.78347,-1.8819878 -5.48374,-1.1690856 -0.69534,0.7078856 -0.44727,1.3131736 1.04732,2.5554646 l 1.95848,1.627867 -2.90467,-0.453772 c -1.59757,-0.249575 -5.31961,-1.888456 -8.27119,-3.6419557 -5.48624,-3.2593119 -8.33088,-4.0252512 -7.87883,-2.1214283 0.25233,1.062716 14.27028,11.932991 17.75086,13.764965 2.33891,1.231075 2.96996,0.578471 1.83958,-1.902439 -0.87332,-1.916717 -0.82135,-1.961791 2.26183,-1.961791 4.106,0 6.59566,1.352979 13.37913,7.270717 7.73511,6.747947 12.70144,10.729128 13.39635,10.738976 2.12532,0.03012 -0.44294,-3.656176 -6.95024,-9.975862 -4.14578,-4.026254 -7.33495,-7.523286 -7.08705,-7.771183 1.02385,-1.02386 6.13473,0.75933 10.80998,3.771612 2.74446,1.768273 7.98641,5.549872 11.64877,8.403552 l 6.65883,5.188511 -4.30865,0.210626 c -2.36976,0.115844 -5.08497,0.607041 -6.03379,1.091549 -1.29665,0.662125 -2.60174,0.63549 -5.25449,-0.107235 -5.48369,-1.535338 -17.98145,-0.729368 -22.50422,1.451277 -5.80207,2.797462 -9.76962,6.72043 -12.59058,12.449118 l -2.57893,5.23717 v 12.552118 12.552119 l 4.08385,8.333694 c 9.52014,19.427271 24.75867,32.123631 41.42916,34.517731 23.15881,3.32591 38.1081,-15.59291 32.76424,-41.46421 -3.39504,-16.43642 -14.41553,-32.390145 -27.92917,-40.431426 l -4.91134,-2.922487 3.52527,0.497515 c 7.46439,1.05344 9.36835,1.93124 14.40182,6.639797 2.74502,2.567834 5.38668,4.66879 5.87035,4.66879 1.59479,0 0.91953,-2.072331 -1.86246,-5.71579 -1.50803,-1.975008 -2.74187,-3.788334 -2.74187,-4.029615 0,-1.020773 6.91282,-0.288925 9.84328,1.042092 8.21585,3.731631 25.65222,26.389009 33.99975,44.180353 4.26766,9.095809 7.49617,17.636041 6.8945,18.237721 -0.51787,0.51785 -15.63307,-2.61556 -16.35408,-3.39023 -0.41576,-0.44672 -6.3278,-14.100731 -12.20755,-28.193704 -0.3012,-0.721932 0.86571,-0.97924 4.4409,-0.97924 3.53071,0 4.76103,-0.266291 4.52431,-0.97924 -0.33666,-1.013894 -1.71236,-1.559833 -7.53595,-2.990597 -2.27147,-0.558062 -4.74115,-2.073191 -7.34601,-4.50672 l -3.92412,-3.666021 0.54269,3.22589 c 0.42881,2.549037 0.28535,3.32464 -0.68378,3.696526 -2.06369,0.791915 -1.3685,2.789608 1.36879,3.93332 4.07875,1.70421 8.03523,8.671208 14.0828,24.798523 l 1.91319,5.101963 -5.77035,-0.29139 c -3.95066,-0.199496 -5.77035,-0.0112 -5.77035,0.59702 0,1.23871 2.94819,2.22901 8.50889,2.85813 l 4.73804,0.53605 0.86437,4.40731 c 1.56165,7.96261 4.28351,16.94485 5.08181,16.7701 1.41429,-0.3096 1.29898,-3.95927 -0.36824,-11.65437 -0.90289,-4.16735 -1.45596,-7.76265 -1.22905,-7.98956 0.62768,-0.62769 8.95647,1.36877 13.15936,3.15437 3.41679,1.45162 3.82469,1.91909 4.88395,5.59722 1.57078,5.45429 4.50039,23.28102 3.92115,23.86026 -0.25667,0.25667 -3.71044,-0.10275 -7.67505,-0.7987 -3.96461,-0.69596 -11.96749,-2.04263 -17.78417,-2.99259 -5.81669,-0.94996 -11.45711,-2.14426 -12.53428,-2.65401 -2.00459,-0.94863 -2.34955,-1.89627 -4.85798,-13.34508 -0.5596,-2.55407 -1.45812,-4.78674 -1.9967,-4.96149 -1.32641,-0.43034 -1.27355,6.47768 0.0997,13.03329 l 1.04633,4.99482 -6.74225,-0.55246 c -3.70824,-0.30386 -15.20288,-1.03579 -25.54365,-1.62653 -10.34078,-0.59074 -18.87023,-1.09156 -18.95434,-1.11293 -0.0841,-0.0214 -0.26037,-1.71337 -0.3917,-3.75998 -0.17191,-2.67928 -0.56777,-3.72112 -1.41386,-3.72112 -0.84588,0 -1.24193,1.0413 -1.41368,3.71692 -0.28198,4.39257 0.20481,4.20385 -12.65608,4.90655 -4.93775,0.2698 -9.91003,0.677 -11.04952,0.90489 l -2.07178,0.41436 -0.5395,-6.92984 c -0.69975,-8.98819 -3.42597,-27.899905 -4.38586,-30.424605 -0.8835,-2.3238 -2.35283,-2.607725 -2.35283,-0.45465 0,2.556013 -1.98518,3.699076 -8.15191,4.693882 -10.04754,1.620838 -8.79277,4.183633 1.86857,3.816463 l 6.64264,-0.22877 1.28649,9.00901 c 1.97051,13.79902 2.16067,17.08628 1.07431,18.57197 -0.7572,1.03553 -2.58441,1.3947 -8.38612,1.64845 l -7.41797,0.32444 -0.50211,-3.02605 c -0.27615,-1.66433 -1.57758,-14.65943 -2.89205,-28.877996 -2.31111,-24.999205 -3.20005,-31.208471 -4.59097,-32.068108 -0.36208,-0.223783 -3.37999,0.113859 -6.70645,0.750316 -3.32647,0.636457 -6.45776,1.157683 -6.95844,1.15828 -0.66333,7.84e-4 -0.84704,-3.400083 -0.67707,-12.534273 l 0.23324,-12.535359 h 4.68754 c 3.0526,0 4.80208,0.341542 5.01596,0.97924 0.18065,0.538582 0.71196,2.477477 1.1807,4.308657 0.51438,2.009419 1.30618,3.329416 1.99716,3.329416 1.50818,0 1.44734,-4.523782 -0.27912,-20.753708 l -1.33268,-12.52809 -4.18371,-0.665946 c -4.64548,-0.739447 -4.34175,0.108707 -2.81026,-7.847557 0.51461,-2.6734239 0.41561,-2.9855753 -0.86846,-2.7382871 -0.95245,0.1834274 -2.08399,1.9413387 -3.30086,5.1280841 -2.12543,5.566104 -2.59761,5.825646 -13.36558,7.346636 -4.29252,0.606326 -6.67386,1.307928 -6.9587,2.050218 -0.91009,2.371643 0.98615,2.676069 9.64225,1.547983 4.69836,-0.612304 8.63734,-1.032905 8.75328,-0.934671 0.2386,0.202164 -2.05993,17.022029 -2.36418,17.300271 -0.262,0.239599 -11.18184,1.910836 -12.48944,1.911457 -0.74465,3.53e-4 -0.95044,-1.076038 -0.75234,-3.93515 0.50168,-7.240828 -1.70162,-8.078682 -4.44123,-1.688883 -1.36209,3.176891 -6.065361,22.916628 -7.554723,31.707383 -0.560799,3.309986 -0.774579,3.443352 -9.624168,6.003828 -4.745509,1.373031 -5.679593,1.916168 -5.679593,3.30248 0,1.590415 0.24991,1.638062 6.029244,1.14953 3.316084,-0.280312 11.159797,-1.552118 17.43047,-2.826235 12.02424,-2.443164 29.95424,-4.748642 32.25387,-4.147274 0.85564,0.223753 1.53384,1.420234 1.82364,3.217206 0.83591,5.183294 1.93269,21.319465 1.52185,22.390064 -0.25364,0.660995 -3.50159,1.532135 -8.77407,2.35331 -8.5978,1.339088 -10.53296,2.123458 -9.00606,3.650358 0.61896,0.61896 3.28165,0.59958 9.61792,-0.07 4.81911,-0.50926 8.93085,-0.7571 9.13722,-0.55074 0.71492,0.71492 2.11815,24.45729 1.57369,26.62656 -0.71285,2.84024 -3.09684,3.6906 -10.34659,3.6906 h -5.82444 l -0.012,-7.63807 c -0.0115,-7.33142 -0.7597,-10.6505 -2.09974,-9.31476 -0.34657,0.34547 -0.74949,4.47856 -0.89536,9.18466 -0.24898,8.03233 -0.36896,8.57857 -1.95848,8.91623 -1.54299,0.32777 -20.75107,2.7689 -21.78717,2.7689 -0.243322,0 -0.700494,-10.80537 -1.015942,-24.01195 -0.315449,-13.20657 -0.755989,-24.487416 -0.97899,-25.068544 -0.223008,-0.581128 -0.729001,-1.0566 -1.124434,-1.0566 -1.246933,0 -2.228022,3.78933 -2.754532,10.639005 -0.451351,5.871949 -0.69613,6.667909 -2.155143,7.007999 -4.797469,1.11825 -17.257136,3.50458 -18.298375,3.50458 -1.776795,0 -0.881929,-8.136002 2.929405,-26.633797 3.443796,-16.713991 3.801344,-20.369727 1.992252,-20.369727 -1.468134,0 -2.996702,2.980546 -4.751849,9.265606 -0.866416,3.102575 -1.998662,5.35302 -3.026619,6.015686 -1.445953,0.932127 -13.888784,4.482683 -14.265266,4.070587 -0.07978,-0.08732 0.163204,-2.088761 0.53996,-4.447637 0.414802,-2.597084 0.396735,-4.57714 -0.04581,-5.019677 -4.113896,-4.113899 -13.607985,31.211579 -14.608089,54.353589 -0.42127,9.74801 0.207545,12.37129 2.432325,10.14715 0.744409,-0.74419 1.541168,-3.91925 2.064162,-8.22562 0.468477,-3.85746 0.965753,-7.13298 1.105057,-7.27893 0.199478,-0.20898 17.364423,-4.74121 18.215254,-4.80955 0.117436,-0.009 0.117436,6.3644 0,14.16406 l -0.213521,14.18121 -7.050529,1.78361 c -3.877791,0.98099 -12.941535,3.58887 -20.141653,5.7953 -14.263284,4.37087 -13.856068,4.27209 -14.116023,3.42413 z M 160.35763,70.159143 c 0.77223,-0.853305 2.5934,-1.774584 4.04703,-2.047288 5.24891,-0.984702 3.94079,-3.418732 -1.84864,-3.439782 -3.8231,-0.0139 -3.64064,0.393672 -6.46745,-14.446811 -1.30028,-6.826296 -1.42828,-8.687642 -0.63222,-9.192862 0.549,-0.348418 4.09963,-0.638885 7.89027,-0.645483 6.35306,-0.01105 7.03404,0.141177 8.70715,1.946485 0.99828,1.077164 2.03903,1.95848 2.31277,1.95848 2.42103,0 -5.17355,-16.890172 -11.09582,-24.676852 l -2.9791,-3.91696 -6.44992,-0.02084 c -6.20329,-0.02004 -6.52109,-0.109905 -8.31131,-2.350177 -3.86868,-4.8412635 -3.58635,-0.924388 1.06436,14.765951 1.3821,4.662887 4.25923,15.943734 6.39361,25.068547 2.13439,9.124814 4.04077,17.031229 4.2364,17.569811 0.50764,1.397565 1.5171,1.213185 3.13287,-0.572222 z M 79.961043,51.614067 c 4.892934,-1.093301 10.092699,-2.48773 11.555033,-3.098731 3.631704,-1.517424 3.44333,-3.296093 -0.414406,-3.91297 l -3.073201,-0.491424 4.052441,-6.632538 c 2.228837,-3.647896 6.960776,-10.305796 10.51542,-14.795334 3.55464,-4.489538 6.46298,-8.514713 6.46298,-8.944834 0,-2.08206 -4.04028,-0.437095 -8.57774,3.492352 -3.948784,3.419646 -5.816962,4.460346 -9.34236,5.204315 -6.675629,1.408766 -10.586642,4.046461 -15.932185,10.745106 -6.652179,8.336026 -12.367615,17.4095 -12.367742,19.634263 -1.01e-4,1.794162 0.153049,1.843524 4.112703,1.325586 2.262045,-0.295884 8.11612,-1.43249 13.009057,-2.525791 z"
       id="path41" />
    <path
       style="fill:#696969;stroke-width:0.783392"
       d="m 70.81504,128.91786 c 0.226074,-11.32804 0.399982,-12.66467 1.834135,-14.0969 1.41327,-1.41136 7.445326,-3.07202 18.196271,-5.00953 l 2.546024,-0.45883 v 14.06654 c 0,13.93961 -0.01591,14.07038 -1.762632,14.49068 -3.906717,0.94005 -18.303597,3.52268 -19.637158,3.52268 -1.330495,0 -1.409603,-0.84139 -1.17664,-12.51464 z"
       id="path43" />
    <path
       style="fill:#696969;stroke-width:0.783392"
       d="m 48.277281,109.90097 c 1.465789,-9.33477 4.601995,-21.432302 5.794671,-22.352245 1.66152,-1.281575 10.694034,-4.087238 13.158401,-4.087238 1.593796,0 1.876263,0.382951 1.877969,2.546025 0.0031,3.975154 -2.487415,22.055958 -3.137185,22.775228 -0.66784,0.73927 -14.530866,4.4083 -16.745597,4.43195 -1.291746,0.0138 -1.407334,-0.39014 -0.948259,-3.31372 z"
       id="path45" />
    <path
       style="fill:#696969;stroke-width:0.783392"
       d="m 101.22539,69.372899 c 0,-2.26255 3.926,-20.50056 4.74077,-22.022968 0.47236,-0.882616 2.5759,-1.573418 6.62499,-2.175645 10.09302,-1.50115 9.15659,-2.604013 8.86438,10.439841 -0.16651,7.433078 -0.57567,11.643509 -1.19114,12.257514 -1.174,1.17121 -10.37091,2.988499 -15.31789,3.026779 -3.19857,0.02475 -3.72111,-0.189471 -3.72111,-1.525521 z"
       id="path47" />
    <path
       style="fill:#696969;stroke-width:0.783392"
       d="m 153.53308,35.478721 c -1.29359,-1.003411 -4.52077,-10.817203 -4.52077,-13.747589 0,-2.118715 0.87917,-2.60083 5.0362,-2.761714 4.36919,-0.169095 5.65045,0.983666 10.62887,9.562917 2.81217,4.84619 3.61488,6.851038 2.91983,7.292623 -1.58567,1.00742 -12.67082,0.73452 -14.06413,-0.346237 z"
       id="path49" />
    <path
       style="fill:#696969;stroke-width:0.783392"
       d="m 125.51697,39.003985 c 0.0349,-3.191444 1.77392,-14.798945 2.38945,-15.949067 0.45166,-0.843945 1.63205,-1.481407 2.74313,-1.481407 2.48619,0 3.18601,1.800513 3.90546,10.048056 l 0.55533,6.366263 -2.10902,0.80185 c -2.44838,0.930873 -7.49377,1.075342 -7.48435,0.214305 z"
       id="path51" />
    <path
       style="fill:#696969;stroke-width:0.783392"
       d="m 17.822122,89.14108 c 1.751887,-4.204339 8.011452,-15.680928 10.653565,-19.53276 1.236439,-1.802556 3.238199,-3.982407 4.448354,-4.844114 2.282579,-1.625339 6.413373,-2.995951 6.413373,-2.127979 0,0.272899 -1.189004,2.866932 -2.642232,5.764519 -1.453227,2.897587 -3.968317,8.365913 -5.589088,12.151837 -3.048076,7.119934 -3.633309,7.726377 -9.786698,10.141387 -4.769136,1.871735 -4.900044,1.813608 -3.497274,-1.55289 z"
       id="path53" />
    <path
       style="fill:#696969;stroke-width:0.783392"
       d="m 71.456491,47.220012 c 0,-1.334479 8.760111,-12.321375 12.328611,-15.462495 3.432333,-3.021259 6.4728,-4.411162 6.4728,-2.95894 0,0.928146 -6.596648,13.576427 -8.228305,15.776785 -1.218764,1.643558 -10.573106,3.983357 -10.573106,2.64465 z"
       id="path55" />
    <path
       style="fill:#696969;stroke-width:0.783392"
       d="m 5.3577815,158.56921 c -0.269291,-1.34646 -0.48962,-7.28425 -0.48962,-13.1951 v -10.747 l 6.3750655,-2.49538 c 3.506286,-1.37246 6.590893,-2.28026 6.854681,-2.01733 0.263789,0.26293 0.596266,6.36804 0.73884,13.56693 l 0.259224,13.08889 -5.170937,2.12354 c -6.7851602,2.78646 -7.9539061,2.74218 -8.5672535,-0.32455 z"
       id="path57" />
    <path
       style="fill:#a9a9a9;stroke-width:0.783392"
       d="m 222.52831,111.07606 c -1.09052,-1.18488 -2.914,-3.41474 -4.05216,-4.95525 l -2.0694,-2.80092 1.94362,-2.63443 c 1.06899,-1.448932 2.33448,-2.875989 2.8122,-3.171236 1.0565,-0.652952 11.28865,1.887927 12.86241,3.194036 0.88024,0.73053 0.93593,1.30432 0.25391,2.61614 -1.4575,2.80344 -7.76696,9.90599 -8.79986,9.90599 -0.53237,0 -1.86019,-0.96945 -2.95072,-2.15433 z"
       id="path59" />
    <path
       style="fill:#a9a9a9;stroke-width:0.783392"
       d="m 211.52609,114.73459 c -6.3263,-0.92766 -11.913,-3.73608 -12.25524,-6.16066 -0.39452,-2.79506 1.76986,-3.96086 7.35361,-3.96086 6.72759,0 8.91751,1.00892 12.3011,5.66722 3.94948,5.43738 3.03967,5.98506 -7.39947,4.4543 z"
       id="path61" />
    <path
       style="fill:#a9a9a9;stroke-width:0.783392"
       d="m 228.69679,95.608635 c -5.77111,-1.587141 -6.04562,-2.02051 -6.04562,-9.544307 v -6.60602 l 4.34976,-1.92367 c 5.6529,-2.499981 4.87331,-3.971612 -0.94979,-1.792913 -3.61949,1.354224 -4.49133,1.451172 -5.07707,0.564565 -0.38895,-0.588731 -1.9589,-3.097491 -3.48878,-5.575024 l -2.7816,-4.504603 1.69472,-2.15423 c 0.93211,-1.184826 2.18103,-3.317944 2.7754,-4.740262 0.92588,-2.215628 1.29745,-2.470017 2.59414,-1.776048 3.54347,1.896408 10.60865,13.949477 13.00135,22.180065 1.29876,4.467573 1.83427,14.59878 0.85537,16.182665 -0.66133,1.070062 -2.1516,1.00333 -6.92788,-0.310218 z"
       id="path63" />
    <path
       style="fill:#a9a9a9;stroke-width:0.783392"
       d="m 209.37102,62.523106 c -2.34913,-1.038527 -6.22693,-2.332412 -8.61732,-2.875299 l -4.34617,-0.987068 v -6.205188 -6.205189 l 2.91954,-0.242053 c 3.56054,-0.295199 15.66549,5.084293 16.98387,7.547709 1.3256,2.476901 1.01827,4.695213 -0.78413,5.659825 -1.03251,0.552585 -1.50365,1.40176 -1.27111,2.291019 0.69814,2.669657 -0.55498,2.930363 -4.88468,1.016244 z"
       id="path65" />
    <path
       style="fill:#a9a9a9;stroke-width:0.783392"
       d="m 180.15215,64.113682 c -1.18488,-1.561709 -2.15433,-3.251055 -2.15433,-3.754102 0,-3.689579 11.05889,-14.500914 14.83295,-14.500914 0.5189,0 0.83489,2.291311 0.83489,6.05405 v 6.05405 l -4.82621,4.521744 c -2.65441,2.486959 -5.21023,4.508895 -5.67959,4.493193 -0.46936,-0.0157 -1.82283,-1.306312 -3.00771,-2.868021 z"
       id="path67" />
    <path
       style="fill:#a9a9a9;stroke-width:0.783392"
       d="m 182.92448,90.668459 c -3.4379,-2.184809 -8.48178,-23.658206 -5.55707,-23.658206 0.515,0 1.92511,0.947271 3.13357,2.105046 1.96862,1.886064 2.19781,2.639886 2.20318,7.246377 0.003,2.827732 0.67602,7.344621 1.49496,10.037532 1.46668,4.822862 1.16842,5.821838 -1.27464,4.269251 z"
       id="path69" />
    <path
       style="fill:#a9a9a9;stroke-width:0.783392"
       d="m 227.84022,118.9417 c -0.96923,-0.96923 -0.42809,-1.95365 3.27298,-5.95406 5.21327,-5.6349 6.35973,-7.69397 7.63554,-13.713709 1.39907,-6.601311 1.392,-13.206504 -0.0211,-19.729404 -1.04505,-4.823895 -1.02162,-5.174558 0.44501,-6.658833 1.97212,-1.995851 2.42616,-1.333677 4.59376,6.699541 3.77274,13.981969 0.92444,28.020145 -7.04594,34.726785 -3.12441,2.62902 -8.22283,5.28707 -8.88021,4.62968 z"
       id="path71" />
    <path
       style="fill:#a9a9a9;stroke-width:0.783392"
       d="m 191.62557,103.64206 c -4.27271,-4.504566 -7.36062,-8.394834 -7.36062,-9.273189 0,-0.397807 0.60176,-0.723286 1.33724,-0.723286 1.85582,0 11.36721,9.899255 11.05551,11.506345 -0.44619,2.30043 -1.80454,1.89286 -5.03213,-1.50987 z"
       id="path73" />
    <path
       style="fill:#a9a9a9;stroke-width:0.783392"
       d="m 173.10162,76.508882 c -2.00232,-9.010446 0.38274,-22.208415 5.14069,-28.446506 2.62332,-3.439405 13.91695,-10.238376 15.07806,-9.077266 0.91487,0.914873 -1.22885,2.933928 -5.31185,5.002941 -4.62926,2.345824 -9.33479,6.92865 -11.74083,11.434665 -1.52408,2.854279 -1.85428,4.899689 -2.18683,13.546017 -0.27398,7.123303 -0.56828,9.389469 -0.97924,7.540149 z"
       id="path75" />
    <path
       style="fill:#a9a9a9;stroke-width:0.783392"
       d="m 234.93511,69.164581 c -4.93251,-8.126628 -6.88081,-10.641486 -11.70278,-15.105889 -6.4363,-5.959028 -16.00698,-11.033118 -22.50724,-11.93267 -3.164,-0.437857 -4.36902,-0.954645 -4.56195,-1.956458 -0.3345,-1.736905 2.28033,-1.781663 9.17262,-0.157008 8.22524,1.938856 15.32219,6.180408 22.8652,13.665563 7.44705,7.389943 12.6614,15.366296 10.81131,16.537987 -1.76971,1.120783 -2.9422,0.818392 -4.07716,-1.051525 z"
       id="path77" />
    <path
       style="fill:#a9a9a9;stroke-width:0.783392"
       d="m 212.85877,119.49752 c -1.62688,-0.41397 -0.12,-0.62654 4.8962,-0.6907 4.37045,-0.0559 7.24637,0.21822 7.24637,0.6907 0,0.90234 -8.59646,0.90234 -12.14257,0 z"
       id="path79" />
    <path
       style="fill:#000000;stroke-width:0.048962"
       d="m 219.78841,120.8402 c -0.10772,-0.008 -0.50431,-0.0386 -0.88132,-0.067 -4.26228,-0.3211 -9.58309,-1.36554 -13.09733,-2.57092 -2.32064,-0.79598 -3.94423,-1.71913 -4.3277,-2.46067 -0.0696,-0.13462 -0.0693,-0.15335 0.004,-0.21368 0.18789,-0.15524 1.10001,-0.003 2.24307,0.37556 0.29622,0.098 1.03432,0.37322 1.64023,0.61164 1.20155,0.47282 1.90961,0.70121 2.9622,0.95551 2.87483,0.69451 6.0469,0.92728 9.98825,0.73292 1.84442,-0.0909 3.81392,-0.0817 4.70035,0.022 0.97329,0.11387 1.81559,0.3477 2.22252,0.61699 l 0.2011,0.13308 v 0.65093 0.65092 l -0.26101,0.12348 c -0.73089,0.34577 -1.77249,0.47424 -3.75357,0.46295 -0.79458,-0.005 -1.53281,-0.0152 -1.64053,-0.0236 z m 2.59499,-0.70369 c 1.37209,-0.0907 2.2987,-0.26235 2.52567,-0.46776 0.42099,-0.38099 -0.49478,-0.64701 -2.79496,-0.81191 -1.08925,-0.0781 -5.7422,-0.0764 -7.41775,0.003 -1.28153,0.0605 -2.20232,0.1576 -2.37592,0.2505 -0.29426,0.15749 0.11541,0.34484 1.22272,0.55919 1.09296,0.21157 3.04499,0.4154 4.6295,0.48341 0.87759,0.0377 3.5518,0.0274 4.21074,-0.0162 z"
       id="path81" />
    <path
       style="fill:#000000;stroke-width:0.553942"
       d="m 214.34041,76.410431 c -3.66897,-4.807081 -5.9964,-6.907136 -9.71892,-8.769435 -8.08352,-4.04402 -14.75137,-1.43399 -17.88358,7.000264 -1.131,3.045491 -1.31074,3.279562 -1.33572,1.73949 -0.0381,-2.351746 1.8327,-7.259263 3.80568,-9.98287 1.18779,-1.639704 2.22271,-2.364119 4.14724,-2.902955 3.45842,-0.968297 8.88112,-0.477012 11.93578,1.081356 4.63775,2.366007 11.65713,10.11062 11.65713,12.861539 0,1.550514 -0.91528,1.189897 -2.60761,-1.027389 z"
       id="path83" />
    <path
       style="fill:#000000;stroke-width:0.553942"
       d="m 203.76379,101.73825 c -2.75302,-0.69405 -2.56583,-0.88291 0.89595,-0.90396 7.31549,-0.0445 11.61871,-5.272422 12.24365,-14.874656 0.47147,-7.244132 2.2353,-6.974782 2.25283,0.344024 0.0164,6.829564 -2.08135,11.846031 -5.40811,12.932958 -0.97718,0.319267 -2.09029,1.003184 -2.47356,1.519814 -0.82726,1.1151 -4.88046,1.64494 -7.51076,0.98182 z"
       id="path85" />
    <path
       style="fill:#696969;stroke-width:0.553942"
       d="m 202.19001,97.850736 c -6.73982,-1.60721 -12.3445,-9.453078 -12.8376,-17.971052 -0.3032,-5.237716 0.50718,-7.20922 3.94167,-9.589324 4.2872,-2.97103 9.72187,-1.829426 14.53568,3.053355 4.75654,4.8247 6.97962,12.288156 5.23485,17.574841 -0.95088,2.881195 -4.12428,6.216739 -6.55754,6.892594 -1.11251,0.309007 -2.14738,0.537705 -2.29972,0.508218 -0.15233,-0.02949 -1.06014,-0.240372 -2.01734,-0.468632 z"
       id="path87" />
    <path
       style="fill:#f5f5f5;stroke-width:0.945331"
       id="path93"
       sodipodi:type="arc"
       sodipodi:cx="201.6875"
       sodipodi:cy="82.75"
       sodipodi:rx="5.6875"
       sodipodi:ry="5.5"
       sodipodi:start="0"
       sodipodi:end="6.2441164"
       sodipodi:arc-type="slice"
       d="m 207.375,82.75 a 5.6875,5.5 0 0 1 -5.63195,5.499738 5.6875,5.5 0 0 1 -5.74196,-5.392305 5.6875,5.5 0 0 1 5.51978,-5.605072 5.6875,5.5 0 0 1 5.84979,5.282815 L 201.6875,82.75 Z" />
    <path
       style="fill:#000000;stroke-width:0.353553"
       d="m 199.94912,87.692661 c -1.67162,-0.601246 -2.50571,-1.338483 -3.22193,-2.847805 -0.73237,-1.543346 -0.70148,-2.920861 0.0993,-4.427746 1.96356,-3.695069 7.41664,-3.844388 9.60031,-0.262881 1.26848,2.080477 1.0517,2.344735 -2.03484,2.480472 l -2.74004,0.120498 2.74004,0.07115 c 3.12666,0.08119 3.38566,0.422765 1.94334,2.563013 -1.47058,2.1822 -4.0931,3.128064 -6.38616,2.303299 z"
       id="path98" />
  </g>
</svg>
