<?xml version="1.0" encoding="UTF-8" standalone="no"?>
<svg
   xmlns:dc="http://purl.org/dc/elements/1.1/"
   xmlns:cc="http://creativecommons.org/ns#"
   xmlns:rdf="http://www.w3.org/1999/02/22-rdf-syntax-ns#"
   xmlns:svg="http://www.w3.org/2000/svg"
   xmlns="http://www.w3.org/2000/svg"
   xmlns:sodipodi="http://sodipodi.sourceforge.net/DTD/sodipodi-0.dtd"
   xmlns:inkscape="http://www.inkscape.org/namespaces/inkscape"
   version="1.1"
   id="svg1087"
   width="511.08035"
   height="251.59093"
   viewBox="0 0 511.08035 251.59093"
   sodipodi:docname="cloud.svg"
   inkscape:version="1.0.1 (3bc2e813f5, 2020-09-07)">
  <metadata
     id="metadata1093">
    <rdf:RDF>
      <cc:Work
         rdf:about="">
        <dc:format>image/svg+xml</dc:format>
        <dc:type
           rdf:resource="http://purl.org/dc/dcmitype/StillImage" />
        <dc:title></dc:title>
      </cc:Work>
    </rdf:RDF>
  </metadata>
  <defs
     id="defs1091" />
  <sodipodi:namedview
     pagecolor="#ffffff"
     bordercolor="#666666"
     borderopacity="1"
     objecttolerance="10"
     gridtolerance="10"
     guidetolerance="10"
     inkscape:pageopacity="0"
     inkscape:pageshadow="2"
     inkscape:window-width="1920"
     inkscape:window-height="1027"
     id="namedview1089"
     showgrid="false"
     fit-margin-top="0"
     fit-margin-left="0"
     fit-margin-right="0"
     fit-margin-bottom="0"
     inkscape:zoom="1.0273438"
     inkscape:cx="444.95726"
     inkscape:cy="29.664816"
     inkscape:window-x="-8"
     inkscape:window-y="-8"
     inkscape:window-maximized="1"
     inkscape:current-layer="g1095" />
  <g
     inkscape:groupmode="layer"
     inkscape:label="Image"
     id="g1095"
     transform="translate(-0.29868601,-1.0416345)">
    <path
       style="fill:#000000"
       d="m 233,252.36911 c -21.17756,-2.00714 -46.07638,-10.89638 -63.37927,-22.62732 l -4.87926,-3.30802 -4.62074,2.23466 c -17.17471,8.30598 -41.06533,5.62579 -56.79806,-6.37193 -3.05354,-2.32862 -3.29937,-2.35991 -6.309886,-0.80311 -5.506925,2.84774 -19.951411,5.46209 -30.304942,5.48497 -34.98173,0.0773 -62.7839696,-19.66307 -66.18878913,-46.99594 -1.2295892,-9.87077 2.74734903,-22.01049 10.40526813,-31.76239 6.374986,-8.11816 22.453867,-17.81849 33.711022,-20.33773 L 50,126.68174 v -5.87299 c 0,-6.88209 1.549271,-11.08687 5.918567,-16.06322 6.438919,-7.333525 21.080252,-14.849288 32.239465,-16.549326 3.885472,-0.591928 5.248103,-1.20676 4.997702,-2.25501 C 89.442098,70.394857 89.222462,64.36007 91.978148,53.58544 94.536815,43.581148 98.124143,37.056052 105.29288,29.366886 c 7.31054,-7.841268 13.6481,-11.914919 23.46318,-15.081655 19.11809,-6.1682575 40.74393,-1.261542 54.66477,12.402966 C 189.09382,32.256732 196,41.739526 196,43.960513 c 0,0.581122 2.3625,-0.269775 5.25,-1.890882 4.62648,-2.597409 11.36199,-4.805456 19.90895,-6.52659 1.9147,-0.385569 3.25735,-1.771555 4.79678,-4.951592 14.25779,-29.4526604 69.97666,-39.2856462 104.65297,-18.468631 6.61602,3.971749 14.41533,12.324646 17.54295,18.788114 2.32313,4.800916 3.14742,15.741297 1.6012,21.251809 l -0.74715,2.66274 5.24715,-1.919852 c 27.05167,-9.897789 63.73913,-4.37554 81.30578,12.23826 7.18376,6.794108 9.83444,13.118343 9.20216,21.955367 l -0.47756,6.674455 5.94586,0.672698 c 19.00837,2.150552 39.68209,13.797951 51.22058,28.857231 11.10839,14.49795 13.07904,34.55395 4.98712,50.75555 -3.30803,6.62331 -9.67308,14.2972 -16.2176,19.5524 -6.62651,5.32104 -23.24114,13.5795 -31.21919,15.5178 -3.66853,0.89128 -6.13932,2.17445 -7.4199,3.85343 -4.34595,5.69797 -14.85404,15.23473 -21.58194,19.58699 -10.45877,6.76574 -20.82962,11.25731 -33.93154,14.69557 -10.43002,2.7371 -13.13887,3.04509 -27.56662,3.13427 -20.51755,0.12682 -34.99854,-2.81037 -50.69678,-10.28288 l -5.69677,-2.71172 -4.30323,2.24995 c -5.97563,3.12438 -23.76158,8.93976 -33.04203,10.80358 -7.72333,1.55111 -33.2377,2.71836 -41.76119,1.91053 z m 37.13246,-2.83298 c 11.58165,-2.01967 24.75616,-5.96208 33.63963,-10.06649 l 7.47131,-3.45196 -2.3717,-1.92276 c -4.29823,-3.48461 -1.1702,-3.30533 3.78034,0.21668 7.05529,5.01939 11.90327,7.24434 21.92665,10.06307 13.90418,3.91007 22.88783,4.94808 37.63674,4.34872 29.86781,-1.21376 54.93037,-12.12202 73.20737,-31.86288 3.55357,-3.83818 6.97208,-8.52696 7.59667,-10.41951 0.6246,-1.89255 1.55074,-3.441 2.05808,-3.441 1.20249,0 1.16353,0.68101 -0.18287,3.19679 -1.05265,1.96689 -0.92161,2.03103 2.75,1.34595 6.39006,-1.1923 18.49018,-6.26341 24.69691,-10.35036 24.97591,-16.44593 33.74597,-41.8658 22.4919,-65.19238 -4.46293,-9.25043 -16.69504,-21.18586 -27.33349,-26.67055 -9.05826,-4.67001 -21.50927,-8.784298 -29.17192,-9.639503 -4.73957,-0.528969 -5.31052,-0.365689 -6.8299,1.953179 -2.68482,4.097554 -2.92693,1.867068 -0.36265,-3.340932 8.43397,-17.129222 -7.53695,-35.719859 -36.34766,-42.30977 -8.33985,-1.907586 -11.66028,-2.151572 -23.5,-1.726784 -8.50459,0.305129 -16.27856,1.166792 -20.28787,2.248695 -6.74007,1.818792 -17.24609,6.605878 -20.19214,9.200576 -0.93067,0.819683 -2.25715,1.301991 -2.94773,1.071798 -0.69058,-0.230194 0.90328,-1.903886 3.54192,-3.719316 5.713,-3.930648 7.59824,-7.847784 7.59716,-15.785274 C 348.99711,27.893433 336.16446,14.377033 314.22984,6.6601786 305.69323,3.6569004 305.09051,3.5889415 287,3.5898921 269.78415,3.5907968 267.96783,3.7693877 260.83335,6.162755 246.15681,11.086216 235.22295,18.848486 228.88334,28.845001 227.2975,31.345609 226,33.725887 226,34.134508 c 0,0.40862 2.00471,1.04357 4.4549,1.411 2.4502,0.36743 5.2627,1.316206 6.25,2.108393 1.61511,1.295921 1.44417,1.360414 -1.7049,0.643219 -1.925,-0.438416 -6.875,-0.745482 -11,-0.682369 -9.1983,0.140734 -16.31235,2.681546 -26.32252,9.401198 -7.16535,4.809967 -10.71223,5.830521 -5.33881,1.536149 l 2.83867,-2.26863 -2.7291,-5.385609 C 189.0864,34.263591 178.26967,23.416457 171.32452,19.714769 164.85327,16.265662 152.29197,12.995319 145.59004,13.014781 115.23459,13.102931 90.383988,39.670162 92.286898,70 c 0.293312,4.675 1.179178,10.3 1.968592,12.5 1.366656,3.808706 1.657897,4.014576 6.0899,4.304791 C 107.47459,87.271623 105.87511,89 98.313889,89 c -20.289136,0 -42.96493,13.03997 -46.211848,26.57465 -1.150024,4.79383 -0.691607,9.6362 1.389283,14.67535 0.432751,1.04796 0.27857,1.75 -0.384335,1.75 -0.608844,0 -1.11388,-0.3375 -1.122302,-0.75 -0.0084,-0.4125 -0.378657,-1.3225 -0.822746,-2.02221 C 50.072542,127.5113 38.993804,130.89691 29.5,135.84757 21.022829,140.2681 10.258166,150.52342 6.7721898,157.5 c -13.8531039,27.72459 5.5793842,58.27558 42.0396262,66.09305 17.7514,3.80609 36.654804,1.43591 54.452954,-6.82749 9.52028,-4.42013 13.2706,-4.59076 4.62658,-0.2105 l -5.30753,2.68952 2.45506,1.98798 c 4.16377,3.37163 13.63382,7.71354 20.20085,9.26187 14.30796,3.37344 29.31092,0.6761 40.03806,-7.19835 4.88419,-3.58532 7.40263,-4.12681 3.72834,-0.80163 -1.10337,0.99854 -2.00613,2.1195 -2.00613,2.49102 0,1.21243 8.31343,6.68152 17.307,11.38563 9.83983,5.14674 27.07901,10.87749 39.193,13.02875 10.77901,1.91419 36.01428,1.98794 46.63246,0.13628 z"
       id="path1099" />
    <path
       style="fill:#f5f5f5;stroke-width:0.486692"
       d="m 231.38221,249.04519 c -13.1603,-1.00849 -33.40594,-6.99361 -46.73793,-13.81692 -6.39621,-3.27358 -13.65824,-7.67801 -16.26887,-9.8671 l -1.66812,-1.39876 2.03314,-2.20569 c 3.58373,-3.8879 2.26138,-3.87805 -3.63492,0.0271 -5.5144,3.65219 -8.23527,5.00983 -13.13554,6.55427 -11.10691,3.50061 -24.01551,2.78411 -35.21494,-1.95464 -5.72722,-2.42333 -14.27794,-7.53914 -13.57893,-8.12414 0.10483,-0.0877 2.08487,-1.18301 4.40008,-2.43394 8.67108,-4.68507 6.36295,-5.033 -4.15286,-0.62599 -4.046342,1.69577 -8.342538,3.43338 -9.547101,3.86138 -19.71712,7.00564 -42.31423,6.39189 -60.205159,-1.63523 C 20.210195,211.38601 9.1890054,200.40517 4.8311412,188.69117 0.34613142,176.6354 2.0880208,162.76706 9.3687851,152.56399 12.186263,148.61565 20.249528,140.93252 24.678168,137.97637 c 6.388976,-4.26471 17.985065,-9.10777 23.674568,-9.88761 1.892872,-0.25945 2.01603,-0.1946 2.815835,1.4826 0.460012,0.96466 1.19241,1.75393 1.627547,1.75393 0.923941,0 0.79964,-1.41117 -0.535858,-6.08365 -0.613081,-2.14497 -0.769455,-3.99403 -0.589077,-6.9655 0.339068,-5.58564 2.173615,-9.24632 7.117827,-14.20297 9.339629,-9.363156 22.946419,-14.959695 38.6123,-15.881441 8.76469,-0.515699 10.17307,-1.711774 3.07528,-2.611687 C 98.37793,85.313958 96.350167,84.838416 95.97045,84.523278 94.353333,83.181191 93.171216,78.538314 92.420153,70.579167 90.35619,48.706926 102.5044,27.568882 122.83439,17.65799 c 6.12669,-2.986765 11.04874,-4.39826 18.0319,-5.171001 4.15898,-0.460222 5.65184,-0.414067 9.97195,0.308308 6.01336,1.005504 11.94294,2.665121 16.90988,4.732864 8.395,3.494846 19.69525,14.335708 24.81942,23.810423 l 2.00187,3.70151 -2.65078,2.288515 c -1.45793,1.258683 -2.65078,2.509663 -2.65078,2.779955 0,0.90131 2.11726,-0.119688 8.77671,-4.232367 11.95759,-7.384657 16.10675,-8.725816 26.99516,-8.725816 4.01521,0 8.47649,0.188428 9.91397,0.41873 2.1176,0.339265 2.57438,0.293085 2.40696,-0.243346 -0.31726,-1.016512 -3.18206,-2.248921 -7.18324,-3.09016 -1.99252,-0.418924 -3.72544,-0.86435 -3.85092,-0.989836 -0.81033,-0.810327 4.48308,-8.578233 8.76029,-12.855442 7.94743,-7.947428 22.8443,-15.4631373 33.78307,-17.0440929 4.47597,-0.6469033 31.71876,-0.6392893 35.74401,0.00999 6.83561,1.1025947 19.3005,6.2745204 26.20646,10.8735709 9.21417,6.136216 15.45034,14.535096 17.12948,23.070021 0.83198,4.228852 0.38258,10.41409 -0.98816,13.600469 -1.05613,2.455027 -2.52916,4.044578 -7.4634,8.053786 -2.21702,1.801388 -2.94275,3.260949 -1.62143,3.260949 0.36002,0 2.05736,-0.911419 3.77186,-2.025374 6.71429,-4.362435 16.50431,-8.150841 24.24279,-9.381136 6.71867,-1.068163 22.80766,-1.764077 28.4247,-1.229486 27.4009,2.607833 49.59554,18.874925 48.4075,35.47926 -0.15412,2.154143 -0.81196,4.634301 -2.00606,7.563204 -2.56118,6.282074 -2.30662,7.890182 0.65672,4.148665 1.46136,-1.845123 1.68057,-1.946768 4.1983,-1.946768 9.29785,0 29.72683,7.616955 39.03651,14.554785 5.45649,4.06633 11.73136,10.1638 15.20901,14.779 3.3923,4.50189 5.73723,9.21213 7.56636,15.19853 1.21542,3.97781 1.33797,5.0733 1.33378,11.92396 -0.005,8.6769 -0.75408,12.25708 -4.02158,19.2298 -4.14195,8.83871 -12.13435,18.02002 -20.90447,24.01404 -7.30775,4.99457 -21.12331,10.98932 -27.45213,11.91182 -2.0239,0.29501 -2.2353,-0.1116 -1.09506,-2.10623 0.96871,-1.69458 0.89464,-2.43346 -0.24396,-2.43346 -0.71667,0 -1.35455,0.80365 -2.41438,3.04182 -2.92176,6.17023 -11.68997,15.5972 -20.84351,22.40949 -15.4321,11.48496 -33.46072,17.93234 -55.34226,19.79148 -15.53886,1.32024 -28.90135,-0.0976 -43.97147,-4.66552 -8.93664,-2.70882 -10.77412,-3.59725 -21.4886,-10.38988 -4.44314,-2.8168 -6.02034,-2.10783 -2.56436,1.15269 l 1.81587,1.71317 -5.10104,2.38475 c -12.95775,6.05775 -30.34861,10.76572 -43.46347,11.76621 -7.4149,0.56566 -22.50673,0.53839 -30.24565,-0.0547 z"
       id="path1109"
       transform="translate(0.29868601,1.0416345)" />
  </g>
</svg>
