<?xml version="1.0" encoding="UTF-8" standalone="no"?>
<svg
   xmlns:dc="http://purl.org/dc/elements/1.1/"
   xmlns:cc="http://creativecommons.org/ns#"
   xmlns:rdf="http://www.w3.org/1999/02/22-rdf-syntax-ns#"
   xmlns:svg="http://www.w3.org/2000/svg"
   xmlns="http://www.w3.org/2000/svg"
   xmlns:sodipodi="http://sodipodi.sourceforge.net/DTD/sodipodi-0.dtd"
   xmlns:inkscape="http://www.inkscape.org/namespaces/inkscape"
   version="1.1"
   id="svg52"
   width="289.06534"
   height="82.811668"
   viewBox="0 0 289.06534 82.811668"
   sodipodi:docname="floomlogo.svg"
   inkscape:version="1.0.1 (3bc2e813f5, 2020-09-07)">
  <metadata
     id="metadata58">
    <rdf:RDF>
      <cc:Work
         rdf:about="">
        <dc:format>image/svg+xml</dc:format>
        <dc:type
           rdf:resource="http://purl.org/dc/dcmitype/StillImage" />
        <dc:title></dc:title>
      </cc:Work>
    </rdf:RDF>
  </metadata>
  <defs
     id="defs56" />
  <sodipodi:namedview
     pagecolor="#ffffff"
     bordercolor="#666666"
     borderopacity="1"
     objecttolerance="10"
     gridtolerance="10"
     guidetolerance="10"
     inkscape:pageopacity="0"
     inkscape:pageshadow="2"
     inkscape:window-width="1920"
     inkscape:window-height="1027"
     id="namedview54"
     showgrid="false"
     fit-margin-top="0"
     fit-margin-left="0"
     fit-margin-right="0"
     fit-margin-bottom="0"
     inkscape:zoom="1.4333333"
     inkscape:cx="144.76993"
     inkscape:cy="87.561953"
     inkscape:window-x="-8"
     inkscape:window-y="-8"
     inkscape:window-maximized="1"
     inkscape:current-layer="g60" />
  <g
     inkscape:groupmode="layer"
     inkscape:label="Image"
     id="g60"
     transform="translate(-6.9673332,-109.66894)">
    <path
       style="fill:#000000"
       d="m 124.14677,191.93565 c -15.76739,-3.13884 -25.740393,-20.20917 -21.01713,-35.97402 0.62131,-2.07373 2.77165,-5.94295 4.77854,-8.59826 7.92673,-10.48785 22.41005,-13.86716 34.36496,-8.01816 6.0209,2.94575 9.50325,6.43639 13.00735,13.03832 3.13793,5.91205 3.10999,18.37181 -0.0546,24.33991 -6.13439,11.56893 -18.6378,17.68893 -31.07915,15.21221 z m 12.63535,-8.48633 c 10.99891,-4.58751 15.99342,-17.94981 10.6564,-28.51011 -6.81209,-13.47898 -26.39355,-14.40456 -33.89571,-1.60218 -6.43283,10.97758 -2.98273,23.71543 7.90353,29.18004 5.70146,2.86197 10.0721,3.12766 15.33578,0.93225 z M 7.2336666,164.25 7.5,137.5 H 24 40.5 l 0.310365,3.75 0.310366,3.75 H 28.060365 15 l 4.55e-4,7.75 4.55e-4,7.75 H 25.750455 36.5 v 3.5 3.5 L 25.75,167.78383 15,168.06766 V 179.53383 191 H 10.983667 6.9673332 Z m 51.0000004,0 L 58.5,137.5 h 3.5 3.5 l 0.26843,23.25 0.268431,23.25 H 79.01843 92 v 3.5 3.5 H 74.983667 57.967333 Z m 182.000003,0 L 240.5,137.5 h 3.98574 3.98574 l 9.51426,15.18667 c 5.23284,8.35268 9.75012,15.41353 10.03839,15.6908 0.28827,0.27727 4.96334,-6.69267 10.38905,-15.48875 l 9.86491,-15.99287 3.61096,0.30207 3.61095,0.30208 0.26633,26.75 0.26634,26.75 H 292.01633 288 v -18.64539 -18.64539 l -8.27314,12.89539 c -7.41904,11.56409 -8.59378,12.92681 -11.37895,13.19972 -2.9841,0.2924 -3.43386,-0.21513 -11.47686,-12.95103 L 248.5,153.59794 248.22793,172.29897 247.95587,191 h -3.99427 -3.99427 z m -52.02871,-0.0846 c -7.0582,-2.51746 -11.83849,-6.55949 -15.59948,-13.19031 -2.76561,-4.87591 -3.10359,-6.35066 -3.08817,-13.47512 0.0137,-6.33839 0.48245,-8.87721 2.25677,-12.22344 8.20591,-15.47565 27.08202,-20.3182 41.12127,-10.54942 13.77424,9.58438 16.15014,28.98718 5.08836,41.55403 -7.19427,8.17312 -19.69182,11.48199 -29.77875,7.88426 z m 19.68485,-9.47381 c 11.60418,-7.67929 11.56594,-26.41034 -0.0693,-33.95479 -7.92488,-5.13859 -16.84708,-4.41792 -23.87144,1.92817 -10.15012,9.17002 -7.89943,27.09148 4.17229,33.22253 6.01499,3.05493 14.08252,2.56688 19.76848,-1.19591 z"
       id="path64" />
  </g>
</svg>
