<?xml version="1.0" encoding="UTF-8" standalone="no"?>
<svg
   xmlns:dc="http://purl.org/dc/elements/1.1/"
   xmlns:cc="http://creativecommons.org/ns#"
   xmlns:rdf="http://www.w3.org/1999/02/22-rdf-syntax-ns#"
   xmlns:svg="http://www.w3.org/2000/svg"
   xmlns="http://www.w3.org/2000/svg"
   xmlns:sodipodi="http://sodipodi.sourceforge.net/DTD/sodipodi-0.dtd"
   xmlns:inkscape="http://www.inkscape.org/namespaces/inkscape"
   version="1.1"
   id="svg1127"
   width="304.27908"
   height="570.15814"
   viewBox="0 0 304.27908 570.15814"
   sodipodi:docname="tulip.svg"
   inkscape:version="1.0.1 (3bc2e813f5, 2020-09-07)">
  <metadata
     id="metadata1133">
    <rdf:RDF>
      <cc:Work
         rdf:about="">
        <dc:format>image/svg+xml</dc:format>
        <dc:type
           rdf:resource="http://purl.org/dc/dcmitype/StillImage" />
        <dc:title />
      </cc:Work>
    </rdf:RDF>
  </metadata>
  <defs
     id="defs1131" />
  <sodipodi:namedview
     pagecolor="#ffffff"
     bordercolor="#666666"
     borderopacity="1"
     objecttolerance="10"
     gridtolerance="10"
     guidetolerance="10"
     inkscape:pageopacity="0"
     inkscape:pageshadow="2"
     inkscape:window-width="1920"
     inkscape:window-height="1027"
     id="namedview1129"
     showgrid="false"
     inkscape:zoom="1.3961039"
     inkscape:cx="394.50635"
     inkscape:cy="233.67029"
     inkscape:window-x="-8"
     inkscape:window-y="-8"
     inkscape:window-maximized="1"
     inkscape:current-layer="g1135"
     units="px"
     fit-margin-top="0"
     fit-margin-left="0"
     fit-margin-right="0"
     fit-margin-bottom="0"
     inkscape:pagecheckerboard="true"
     inkscape:document-rotation="0" />
  <g
     inkscape:groupmode="layer"
     inkscape:label="Image"
     id="g1135"
     transform="translate(-1.2551414,-583.85114)">
    <path
       style="fill:#000000;stroke-width:0.414402"
       d="m 151.54722,1138.6522 c -2.18127,-5.6974 -2.35063,-5.948 -8.38024,-12.4013 -6.16048,-6.5934 -9.60652,-12.2676 -13.16016,-21.6696 -4.49396,-11.8898 -6.9641,-24.0298 -10.18195,-50.0413 -2.81924,-22.7894 -4.17836,-30.3935 -7.80638,-43.676 C 105.71845,987.79903 96.263381,967.63568 79.457877,941.42704 66.72743,921.57356 60.358375,909.51082 45.59452,877.29117 36.087719,856.54417 34.083412,851.93965 27.061239,834.71443 21.729095,821.63481 20.520162,819.12534 12.113688,803.68674 8.0980231,796.31191 4.7378919,789.2596 5.052699,788.86698 c 0.09038,-0.11272 1.9547245,1.4762 4.1429879,3.53093 9.5139671,8.93341 17.3273181,15.38047 34.1761301,28.19989 13.46871,10.24768 20.485285,15.93659 25.521839,20.69267 16.426869,15.51208 30.62871,34.41146 42.637314,56.74045 15.06232,28.00712 28.39316,68.45262 34.80647,105.60208 1.67524,9.704 1.90673,10.4814 1.58482,5.3221 -0.15088,-2.4181 -0.28843,-33.23992 -0.30568,-68.493 -0.0218,-44.63743 -0.16183,-65.85274 -0.46112,-69.88139 -0.23638,-3.18169 -0.54185,-10.81315 -0.67884,-16.95882 l -0.24907,-11.17393 -1.88975,-1.58309 c -2.81563,-2.35873 -5.00798,-6.09939 -8.44572,-14.41042 -2.90164,-7.01495 -3.32326,-7.77391 -6.85187,-12.33421 -4.37741,-5.65727 -13.26134,-17.49227 -14.6081,-19.46064 -0.51022,-0.74572 -3.1525,-4.42968 -5.87173,-8.18656 -9.739266,-13.45578 -14.529317,-21.52355 -18.068873,-30.43303 -3.83333,-9.64894 -5.590133,-16.97672 -9.108958,-37.99426 -1.231655,-7.35653 -2.558163,-15.23552 -2.947796,-17.50886 -2.576056,-15.03014 -1.61364,-29.70514 2.998726,-45.72477 0.825661,-2.86768 2.560401,-9.17083 3.854975,-14.00699 3.545946,-13.24665 5.981904,-19.79427 9.039207,-24.29652 l 1.099921,-1.61976 0.82142,0.92558 c 1.210084,1.36352 4.307478,7.41034 5.252618,10.25429 0.77293,2.32575 1.4269,3.19339 1.42755,1.89396 7.5e-4,-1.31936 2.20807,-6.26212 3.31575,-7.42455 1.36503,-1.4325 3.16316,-1.64491 4.82916,-0.57045 1.23827,0.79862 3.51071,4.08117 6.41579,9.26768 2.56579,4.58075 4.3937,6.84464 5.21076,6.45361 0.93848,-0.44915 1.68273,-3.68316 2.12419,-9.23036 0.64892,-8.15393 1.45128,-10.86777 4.09321,-13.84456 2.86617,-3.22943 5.44543,-3.87817 7.37366,-1.85464 0.62508,0.65597 1.75523,2.66117 2.51148,4.45601 l 1.37498,3.26334 0.44106,-1.58887 c 1.36312,-4.91047 3.82362,-9.07861 6.20955,-10.5191 2.15768,-1.30269 5.40665,-1.30356 7.56243,-0.002 2.12098,1.28053 3.45845,3.38195 5.78952,9.09646 1.06379,2.60783 2.01765,4.73998 2.1197,4.73812 0.10204,-0.002 0.74446,-1.27227 1.42759,-2.82312 3.19828,-7.26072 6.45632,-9.28044 10.70797,-6.63808 3.67777,2.2857 6.12524,6.6051 8.64308,15.25367 0.66692,2.29081 1.45842,4.76947 1.75889,5.50813 l 0.54632,1.34301 1.22992,-2.87094 c 3.06396,-7.15206 6.19195,-10.54597 9.31506,-10.10694 2.43328,0.34206 4.19476,2.73962 5.48207,7.46167 0.19851,0.72817 0.47686,0.4557 1.68624,-1.65061 3.79606,-6.61143 9.34223,-7.69732 13.33135,-2.61016 3.03901,3.87551 4.52647,10.10449 7.23375,30.2925 3.17706,23.69112 4.20719,35.08177 4.55639,50.38217 0.41969,18.38883 -1.56767,36.86351 -5.4935,51.06816 -5.51973,19.97175 -18.56745,39.65517 -37.47947,56.54042 -2.45015,2.18757 -3.16296,3.17047 -5.19307,7.16084 -6.33889,12.45965 -11.47797,19.28373 -17.19538,22.83342 l -2.15765,1.33959 -0.11361,8.04623 c -0.0625,4.42543 -0.48039,17.00123 -0.92867,27.94623 -1.19705,29.22653 -1.0927,75.18872 0.26162,115.23488 0.12051,3.56349 0.26471,6.53666 0.32044,6.60706 0.0557,0.07 0.29894,-2.11629 0.54046,-4.8593 1.90473,-21.63218 6.45162,-49.25911 10.5828,-64.30113 6.4854,-23.61402 16.39494,-42.81036 31.61494,-61.24316 9.00341,-10.90394 17.90459,-19.14844 25.45564,-23.57762 7.88262,-4.62369 13.7367,-6.19004 23.10965,-6.18337 7.03771,0.005 10.41108,0.50312 24.49075,3.61625 10.41585,2.30303 15.94896,3.24665 21.81627,3.72056 2.20265,0.17791 3.95563,0.50752 3.89551,0.73246 -0.29599,1.10745 -6.54902,6.29587 -10.49782,8.71052 -5.51164,3.3703 -8.09771,4.51945 -17.25485,7.6674 -11.39317,3.91662 -12.07123,4.26876 -18.90034,9.81585 -20.12301,16.34533 -30.33847,31.54159 -38.35042,57.04911 -5.10436,16.25069 -8.85871,31.85228 -16.03659,66.64186 -9.76641,47.33557 -16.55551,72.74847 -26.72813,100.04837 -4.1299,11.0832 -11.56469,27.6819 -12.39914,27.6819 -0.16825,0 -0.50457,1.6944 -0.74737,3.7654 -0.69149,5.8981 -1.64393,9.1593 -3.39785,11.6346 -1.25314,1.7686 -1.78116,2.186 -2.76512,2.186 -1.18069,0 -1.27185,-0.1453 -3.12092,-4.975 z m 5.17255,-1.4685 c 2.08416,-5.095 2.87017,-19.4014 2.25219,-40.9925 -0.23312,-8.1451 -0.57441,-19.0786 -0.75841,-24.2965 -0.31542,-8.945 -0.56286,-23.8711 -1.47683,-89.08725 -0.21046,-15.01756 -0.37966,-39.8 -0.376,-55.07209 0.006,-26.48968 0.19422,-35.74851 1.15969,-57.15465 0.23534,-5.21797 0.44697,-13.40865 0.47028,-18.20152 0.042,-8.62845 0.0338,-8.72307 -0.83363,-9.60291 -1.0408,-1.05574 -3.42206,-1.16044 -6.17435,-0.27148 l -1.85536,0.59926 -0.11109,6.91216 c -0.0611,3.80169 0.17236,11.80617 0.51878,17.78774 0.52701,9.09952 0.64178,19.11349 0.70277,61.31977 0.0503,34.77403 0.2679,58.56679 0.70061,76.59187 0.36728,15.2995 0.60459,36.5158 0.57199,51.1384 -0.0307,13.7448 0.12908,29.364 0.35494,34.7093 0.31523,7.4605 0.30351,11.4928 -0.0505,17.3546 -0.25361,4.1998 -0.44941,10.6558 -0.43511,14.3465 0.0259,6.6771 0.0327,6.7294 1.37337,10.5167 1.90467,5.3804 2.05768,5.6846 2.70389,5.3753 0.31172,-0.1492 0.87995,-1.0369 1.26273,-1.9727 z m -8.17947,-16.9274 c -0.96927,-23.0644 -2.52438,-37.8322 -5.70185,-54.1465 -1.82226,-9.3562 -3.74862,-16.3239 -7.82373,-28.2988 -5.8378,-17.1547 -6.59322,-20.1037 -9.81627,-38.32129 -1.03362,-5.84233 -2.13954,-11.88174 -2.45761,-13.42093 -3.35888,-16.25458 -10.7026,-35.52935 -24.076527,-63.19272 -22.188453,-45.89585 -24.27878,-49.85732 -40.701008,-77.13433 -3.124556,-5.18983 -6.533124,-9.2009 -9.016405,-10.61015 -1.025398,-0.58191 -1.613888,-1.06798 -1.307754,-1.08016 0.306134,-0.0122 1.452176,0.49782 2.546757,1.13331 3.687684,2.141 8.260642,8.51545 21.521384,29.99961 6.028437,9.76686 8.887157,15.15496 25.084408,47.27893 9.214425,18.27495 15.497025,32.05414 20.256815,44.4279 5.71946,14.86859 7.38748,21.26338 10.95261,41.98982 2.80809,16.32521 3.62812,19.71771 8.27431,34.23141 2.22457,6.949 4.63593,14.9254 5.3586,17.7253 4.04437,15.6694 6.59168,34.8779 7.21124,54.3779 0.24997,7.8676 0.26627,7.9931 0.57088,4.3965 0.17245,-2.0363 0.17802,-8.8046 0.0124,-15.0407 -0.16565,-6.2361 -0.2528,-20.2675 -0.19366,-31.1809 0.11775,-21.7351 0.0822,-22.3163 -2.53857,-41.4772 -6.7502,-49.35237 -22.77044,-98.62671 -42.95747,-132.12678 C 90.552704,867.90435 75.381587,849.9178 58.503341,836.15629 55.895514,834.03002 48.549378,828.31008 42.178598,823.44531 28.890986,813.2988 21.309209,807.28271 16.928733,803.40971 c -1.686049,-1.49072 -3.151494,-2.7104 -3.256545,-2.7104 -0.10505,0 0.670509,1.50986 1.723464,3.35524 5.352069,9.37987 8.899705,16.72409 13.021895,26.95755 6.283419,15.59879 9.726958,23.5607 18.108108,41.86834 15.871186,34.66872 22.218592,46.74129 35.045848,66.65608 16.606179,25.78171 26.830187,47.74391 33.070337,71.03838 3.35928,12.5402 4.68491,19.9059 7.2046,40.0314 3.46244,27.6554 5.873,40.087 9.98491,51.4933 2.61893,7.2648 7.11794,15.333 10.72043,19.2253 l 2.14462,2.3171 -1.00374,-3.7754 c -0.55206,-2.0765 -1.4548,-6.3786 -2.0061,-9.5603 -2.37801,-13.7241 -10.361,-52.9287 -12.27081,-60.2621 -3.46538,-13.3065 -10.92901,-37.5179 -19.37176,-62.84024 -10.679827,-32.03201 -22.545572,-60.09919 -35.999672,-85.15348 -4.733737,-8.8152 -16.906002,-29.46845 -22.911143,-38.87442 -3.780823,-5.92198 -10.529518,-14.30051 -13.234007,-16.43007 -2.102892,-1.65585 -2.373246,-2.56836 -0.338346,-1.14199 6.055762,4.24478 12.193594,12.15444 24.516504,31.59377 16.530128,26.07619 27.218658,46.8771 38.386834,74.70451 6.43375,16.03078 10.39771,27.44705 18.60976,53.59632 9.39377,29.9123 11.61396,37.9075 14.64622,52.7437 2.08856,10.2189 7.31814,40.3526 8.75441,50.4442 1.01681,7.1444 2.48742,14.2395 3.21042,15.489 0.43932,0.7591 3.01639,3.72 3.11022,3.5734 0.0309,-0.048 -0.0837,-3.4201 -0.25489,-7.4926 z m 16.56985,-7.2405 c 11.5977,-26.0519 21.5852,-59.9197 30.96003,-104.9863 6.11264,-29.38454 7.18579,-34.43437 9.09719,-42.80809 11.99613,-52.55433 21.70479,-71.34832 47.95742,-92.83582 6.52461,-5.34033 8.64487,-6.55285 15.84638,-9.06214 13.56873,-4.72788 19.43364,-7.3859 24.09167,-10.9185 l 2.18598,-1.65782 -1.2583,-0.24636 c -0.69206,-0.1355 -3.34557,-0.5773 -5.89669,-0.98178 -2.55112,-0.40448 -8.31201,-1.54573 -12.80198,-2.53611 -12.57041,-2.77272 -15.51706,-3.25921 -21.52218,-3.55325 -17.9582,-0.87933 -31.60842,7.51469 -50.49721,31.05261 -8.61118,10.73068 -13.62096,18.55957 -18.9738,29.65079 -8.11688,16.8184 -13.15527,34.74203 -17.32372,61.62765 -3.76145,24.26054 -6.31333,57.67622 -6.60316,86.46542 -0.0707,7.0225 0.73124,39.2792 1.00097,40.2627 0.0698,0.2546 0.14057,-1.7238 0.15724,-4.3965 0.12703,-20.3643 2.57324,-58.3542 5.78111,-89.78136 2.90964,-28.5055 4.73887,-38.4024 9.29003,-50.26281 1.74834,-4.55622 5.51497,-11.88088 6.87672,-13.37261 0.97785,-1.07118 1.00136,-1.13653 -1.33311,3.70403 -4.79301,9.93835 -7.96592,22.15255 -9.79793,37.71744 -2.47414,21.02049 -9.90967,112.19321 -10.66227,130.73841 l -0.13147,3.2395 0.73952,-1.7012 c 1.40389,-3.2296 2.64659,-8.9777 4.13457,-19.1244 0.82119,-5.5998 2.31153,-14.1382 3.31189,-18.9744 2.75342,-13.3113 3.41998,-17.5584 7.59025,-48.3616 6.33938,-46.82525 9.36363,-65.82239 13.52062,-84.93122 2.90661,-13.36105 4.75627,-19.98188 7.62557,-27.29556 4.23497,-10.79469 9.2062,-19.34356 16.02798,-27.56284 12.2101,-14.71143 28.15573,-25.53045 43.71906,-29.66312 5.40725,-1.43583 14.49324,-1.56044 17.52879,-0.2404 2.81325,1.22338 2.68981,1.65144 -0.20463,0.70964 -9.91461,-3.22605 -28.39151,3.34915 -43.05316,15.32093 -6.23239,5.08896 -9.83268,8.57061 -14.05242,13.5893 -11.16821,13.28271 -17.95687,27.05938 -22.36685,45.39045 -4.23857,17.61853 -8.55584,42.11391 -13.5474,76.86532 -6.39869,44.5479 -8.49059,56.9191 -12.04226,71.2161 -0.62498,2.5158 -1.64385,7.6181 -2.26414,11.3383 -2.07863,12.4667 -3.8822,19.7854 -5.73735,23.2816 -0.82174,1.5487 -0.92353,2.2214 -0.91304,6.0338 0.014,5.1001 -0.0775,5.1763 3.54008,-2.9498 z m -1.88206,-275.05162 c 4.49766,-3.3276 8.82659,-9.41185 14.79144,-20.78919 l 1.43134,-2.73014 -2.38167,0.30432 c -1.30991,0.16737 -4.3756,0.91123 -6.81264,1.653 -8.86774,2.69913 -10.64175,2.98844 -17.77219,2.89827 -7.93788,-0.10036 -11.2948,-0.56944 -15.23064,-2.12823 -1.61558,-0.63986 -2.98686,-1.10173 -3.04727,-1.02638 -0.0604,0.0753 1.35178,3.62894 3.1382,7.89689 3.53737,8.45114 5.61832,12.06019 8.37624,14.52711 l 1.78855,1.59984 3.47986,-0.81693 c 3.66149,-0.85956 6.19992,-0.71279 7.45414,0.431 0.78206,0.7132 1.97391,0.25996 4.78464,-1.81956 z m -3.67869,-21.64707 c 0.0884,-0.11029 -0.16885,-2.60532 -0.57174,-5.54451 -1.62584,-11.8608 -1.86806,-24.20079 -0.93352,-47.55933 0.66824,-16.70226 0.75192,-35.23762 0.1912,-42.34535 -1.58888,-20.14043 -4.05392,-30.20798 -9.67401,-39.50991 -2.56221,-4.24078 -5.42143,-7.43472 -10.45826,-11.68255 -4.39293,-3.7048 -9.38536,-9.92065 -10.92183,-13.59824 -0.63805,-1.52721 -1.69408,-4.84798 -2.34674,-7.37948 -1.61663,-6.27056 -2.5955,-8.43562 -4.99306,-11.04371 -1.12524,-1.22403 -3.36867,-4.56645 -4.98543,-7.42759 -2.70133,-4.78051 -5.17338,-8.16434 -5.96445,-8.16434 -0.17584,0 -0.83137,0.72678 -1.45673,1.61507 -1.02661,1.45826 -2.79514,7.37565 -3.56298,11.92156 -0.11823,0.69997 -0.36847,1.27268 -0.5561,1.27268 -0.18763,0 -1.6761,-3.2918 -3.30773,-7.3151 -1.631618,-4.02331 -3.31162,-7.82398 -3.733333,-8.44593 -0.761417,-1.12297 -0.770931,-1.1244 -1.367641,-0.20525 -1.515767,2.33481 -4.853946,12.20784 -8.136675,24.06511 -6.484974,23.42383 -7.462029,29.15723 -7.097981,41.65117 0.153601,5.27158 0.47938,8.93778 1.130897,12.72674 0.503326,2.92715 1.92356,11.32159 3.156076,18.65431 2.473473,14.71568 3.493636,19.71297 5.471119,26.80039 3.624996,12.9922 8.74418,22.557 21.137088,39.49302 2.43164,3.32304 7.57483,10.35834 11.42932,15.63397 7.34868,10.05814 8.70564,11.44461 13.34105,13.63116 3.13017,1.47652 3.4876,1.35489 2.16035,-0.7351 -3.31807,-5.22492 -8.45586,-17.37237 -11.2989,-26.71437 -2.10397,-6.91345 -3.58223,-13.77671 -5.27824,-24.50558 -2.07838,-13.14774 -4.92916,-22.38019 -10.62981,-34.42537 -6.10683,-12.90342 -8.99198,-23.23107 -8.10222,-29.00264 l 0.28334,-1.83793 0.0427,1.89283 c 0.13686,6.07076 2.80518,13.63787 9.5319,27.03159 7.16937,14.27507 9.40138,21.19079 12.02375,37.25465 0.83103,5.0907 2.02643,11.54663 2.65642,14.34651 1.5362,6.82732 5.09139,18.06109 7.8909,24.93387 2.24679,5.51585 6.16128,13.36941 6.9773,13.99839 0.97855,0.75426 17.3851,1.22878 17.95399,0.51926 z m 6.5885,-1.56052 2.90981,-0.82558 1.44121,-3.57492 c 1.5699,-3.89414 5.45597,-15.03854 6.91761,-19.83817 0.50383,-1.65448 1.82466,-6.965 2.93516,-11.80117 3.97382,-17.30577 4.64961,-18.90153 14.79698,-34.94069 8.59568,-13.58651 11.00773,-18.81363 12.59971,-27.30465 0.72086,-3.84482 0.73191,-11.39092 0.0234,-16.00904 -0.30334,-1.9773 -0.48749,-3.67497 -0.40921,-3.77259 0.23238,-0.28982 1.634,5.44785 2.05504,8.41255 0.66774,4.70177 0.4805,10.34261 -0.50397,15.18278 -1.66735,8.19751 -4.52849,14.42987 -12.95471,28.21896 -8.19211,13.40598 -8.80491,14.87574 -12.67241,30.39381 -2.64089,10.59639 -4.47071,16.06898 -9.10772,27.23922 -1.61136,3.88166 -2.89542,7.05347 -2.85345,7.04846 0.042,-0.005 1.41215,-0.31013 3.04487,-0.67805 1.63272,-0.36791 3.64185,-0.67619 4.46475,-0.68507 1.21507,-0.0131 2.05168,-0.51111 4.45286,-2.65061 20.48197,-18.24977 33.45459,-38.70889 38.38468,-60.53647 2.62859,-11.63786 4.0927,-26.05919 4.08736,-40.25995 -0.006,-15.36333 -1.14172,-29.07785 -4.46584,-53.91796 -2.20047,-16.44344 -2.95095,-20.37659 -4.81921,-25.25687 -2.28155,-5.95989 -4.94166,-7.56205 -8.38134,-5.04802 -2.10384,1.53768 -4.29812,5.44645 -5.74913,10.24121 -0.64726,2.13884 -1.27022,3.77235 -1.38434,3.63002 -0.11412,-0.14233 -0.50164,-2.07382 -0.86117,-4.29221 -1.15015,-7.09688 -2.73479,-10.7439 -4.66826,-10.7439 -2.13685,0 -5.53255,5.10614 -7.69417,11.56977 -0.5533,1.65448 -1.22588,3.63291 -1.49462,4.39651 -0.26874,0.76361 -0.76711,2.4814 -1.1075,3.81732 -1.59194,6.24797 -6.01063,11.17452 -16.70124,18.62077 -9.43376,6.57082 -13.85573,10.60519 -16.60891,15.15308 -1.39246,2.30016 -1.48144,2.60869 -1.01574,3.5219 2.42179,4.74896 3.61778,7.55673 4.84857,11.38276 4.61704,14.35248 5.96541,34.87652 4.61233,70.20557 -0.96204,25.11871 -0.5575,41.10294 1.31363,51.9042 0.33331,1.92409 0.55561,2.40203 1.03954,2.23503 0.33856,-0.11683 1.92498,-0.58392 3.52538,-1.038 z M 152.77237,671.05678 c 2.65849,-3.16892 6.24883,-6.18651 13.51658,-11.36036 7.75463,-5.52046 11.01069,-8.31077 13.44698,-11.5235 1.53934,-2.02994 1.8579,-2.71691 1.64785,-3.55372 -0.50957,-2.03014 -2.49396,-5.07752 -4.1692,-6.40252 -3.64655,-2.88417 -7.32238,-1.12451 -9.16973,4.38966 -0.52661,1.57187 -0.58278,1.60773 -1.75272,1.11887 -0.71,-0.29667 -2.56943,-2.24436 -4.50678,-4.72071 -4.07682,-5.21103 -4.80454,-5.82852 -6.87361,-5.83237 -1.57085,-0.003 -1.76591,0.16157 -4.82393,4.06811 -5.19182,6.63239 -7.08336,6.80169 -14.77524,1.32246 -2.00726,-1.42984 -4.1724,-2.73013 -4.81143,-2.88952 -1.51835,-0.37873 -3.15393,0.82126 -4.45089,3.26551 l -0.98637,1.85893 1.72706,6.37488 c 2.73303,10.08807 4.67565,13.14373 13.0888,20.58821 2.63711,2.33348 5.69712,5.38408 6.80003,6.77912 l 2.00528,2.53643 1.08314,-1.86479 c 0.59572,-1.02564 1.9476,-2.89525 3.00418,-4.15469 z m 30.68052,-30.46167 c 0.52008,-2.33486 0.45591,-4.51745 -0.1678,-5.70685 -0.29562,-0.56374 -1.38812,-3.83645 -2.42779,-7.27267 -1.03967,-3.43622 -2.42587,-7.3594 -3.08046,-8.71817 -1.42557,-2.95916 -4.17833,-5.62658 -6.14633,-5.95579 -1.21321,-0.20295 -1.61689,-0.0202 -2.78769,1.26184 -0.76209,0.83451 -2.365,3.72802 -3.61547,6.52649 -1.23553,2.76504 -2.38432,5.13363 -2.55286,5.26354 -0.56678,0.43688 -2.16165,-2.49852 -4.33396,-7.9768 -2.53146,-6.38399 -4.43229,-9.10777 -6.68762,-9.58299 -4.58529,-0.96616 -8.70086,5.5795 -9.58723,15.24816 l -0.25456,2.77674 -1.38301,-1.99803 c -0.76065,-1.09892 -2.27262,-4.07112 -3.35994,-6.60488 -2.59722,-6.05227 -3.53479,-6.38675 -6.80348,-2.42713 -1.70612,2.06675 -2.33027,4.56104 -3.02946,12.10669 -0.59897,6.4641 -1.1011,8.62544 -2.37216,10.21067 -0.45317,0.56518 -0.67252,1.26026 -0.53686,1.70119 0.16896,0.5491 0.48449,0.15945 1.19757,-1.47886 2.2162,-5.09175 4.69931,-5.45835 11.01827,-1.62673 6.46843,3.92225 7.89745,3.71396 11.44795,-1.66862 2.63851,-4 4.41805,-5.3348 7.07265,-5.30505 2.80424,0.0314 4.4858,1.30798 7.97663,6.05545 l 3.03967,4.13388 1.35761,-1.87802 c 2.59005,-3.58288 5.79083,-4.44886 9.17642,-2.48271 2.10947,1.22506 3.9116,3.67232 4.88682,6.63622 0.58065,1.76474 0.70471,1.89697 1.12024,1.19404 0.25701,-0.43475 0.63179,-1.52898 0.83285,-2.43161 z"
       id="path1139" />
    <path
       style="fill:#ff8080;stroke-width:1.43256"
       d="m 160.69205,226.13784 c -0.47149,-2.56069 -1.01591,-26.89627 -1.20983,-54.07907 -0.36332,-50.92784 -1.012,-57.73983 -6.77974,-71.19542 l -2.61359,-6.097244 3.72002,-4.420989 c 2.04601,-2.431543 8.8596,-8.333417 15.1413,-13.115275 11.68854,-8.897726 12.70507,-10.364992 18.83303,-27.183807 2.39591,-6.575818 5.87967,-10.96553 7.45346,-9.391739 0.43954,0.439534 1.62873,3.915815 2.64266,7.725071 l 1.84351,6.925919 3.01509,-6.835081 c 4.88206,-11.06743 9.83041,-10.390731 13.11115,1.792982 3.44539,12.795208 7.28757,51.899913 7.25159,73.804893 -0.0588,35.81053 -5.44086,55.87382 -20.71065,77.20551 -8.18952,11.44065 -24.13312,26.65495 -27.93265,26.65495 h -2.96821 l 2.99977,-7.52093 c 4.85017,-12.1602 6.40919,-16.95686 9.05207,-27.8506 1.62581,-6.70151 5.79052,-16.2139 11.91681,-27.21862 11.1275,-19.98842 13.27018,-26.34874 13.13537,-38.99101 -0.14832,-13.90891 -2.53581,-17.86594 -2.67173,-4.42814 -0.14296,14.13339 -1.56598,18.72856 -10.24755,33.09125 -10.83894,17.93179 -13.5389,23.84164 -16.29683,35.67154 -7.3335,31.45636 -16.29161,48.4548 -18.68505,35.45581 z"
       id="path1141"
       transform="translate(1.2551414,583.85114)" />
    <path
       style="fill:#ff8080;stroke-width:1.43256"
       d="m 137.28699,223.98901 c -5.86642,-11.7348 -9.6572,-24.19962 -13.68795,-45.00855 -3.43687,-17.74308 -5.19342,-22.91769 -15.72254,-46.31703 -2.83631,-6.30326 -5.17467,-12.74977 -5.19635,-14.32559 -0.0217,-1.57581 -0.66434,-3.83209 -1.42812,-5.01395 -1.05818,-1.63743 -1.393903,-1.07115 -1.410618,2.37935 -0.02632,5.4324 3.561308,16.80977 10.663698,33.81759 3.06939,7.35016 6.7049,20.02615 8.76483,30.56049 3.71775,19.0123 7.54087,31.8148 12.26717,41.07913 1.575,3.08725 2.50029,5.97652 2.0562,6.42061 -1.40246,1.40246 -6.44113,-4.13826 -17.23487,-18.95216 -23.355029,-32.05365 -26.804962,-39.92367 -32.99452,-75.26742 -5.260611,-30.03925 -4.647953,-46.280252 2.691254,-71.342619 2.841097,-9.701953 5.904931,-19.021306 6.808518,-20.709674 1.534834,-2.867865 1.862446,-2.572262 4.981227,4.494548 3.154931,7.148725 6.192391,8.744251 6.336841,3.328634 0.0356,-1.332338 0.84939,-4.259338 1.80855,-6.504447 l 1.74393,-4.082014 6.83541,10.790334 c 3.75948,5.934684 7.83146,14.144403 9.04886,18.243821 1.69236,5.698785 4.51322,9.883246 11.98226,17.774442 19.30837,20.399695 20.48567,25.807805 20.66788,94.941015 l 0.13687,51.92977 -7.50031,4.5e-4 -7.50031,4.8e-4 z"
       id="path1143"
       transform="translate(1.2551414,583.85114)" />
    <path
       style="fill:#ff8080;stroke-width:1.43256"
       d=""
       id="path1145"
       transform="translate(1.2551414,583.85114)" />
    <path
       style="fill:#ff8080;stroke-width:1.43256"
       d="m 138.15051,82.165751 c -8.02737,-8.125812 -12.54499,-16.847911 -12.54499,-24.22042 0,-4.780131 3.08172,-5.487547 8.77774,-2.014946 6.63986,4.048023 10.39421,3.704026 14.63964,-1.341378 1.98894,-2.363721 4.26972,-4.297674 5.06839,-4.297674 0.79868,0 3.17309,2.256279 5.27647,5.013953 4.596,6.025667 6.01981,6.190611 10.02957,1.161896 l 3.07152,-3.852057 3.85306,3.853062 c 3.77423,3.774231 3.80042,3.922971 1.27997,7.270053 -1.41521,1.879346 -7.59342,7.197265 -13.72937,11.817601 -6.13594,4.620335 -12.11382,9.851073 -13.28418,11.623864 -1.17036,1.77279 -2.61674,3.223256 -3.21416,3.223256 -0.59744,0 -4.74808,-3.706745 -9.22366,-8.23721 z"
       id="path1147"
       transform="translate(1.2551414,583.85114)" />
    <path
       style="fill:#ff8080;stroke-width:1.43256"
       d="m 180.20891,56.482031 c -0.53361,-5.421436 -12.18505,-8.703036 -14.01049,-3.94602 -0.67717,1.764684 -1.76203,1.152017 -5.07329,-2.865116 -5.31817,-6.451861 -8.65954,-6.441604 -14.60189,0.04482 l -4.72225,5.154621 -6.08779,-3.105755 c -3.34828,-1.708162 -6.90711,-2.791348 -7.90851,-2.407075 -2.52372,0.968446 -1.18,-11.503857 1.73964,-16.147093 2.4273,-3.860246 2.68222,-3.674378 8.05242,5.87133 l 2.6796,4.763074 1.78386,-6.919275 c 3.5075,-13.604964 8.78647,-14.220679 14.5215,-1.693722 1.98838,4.343194 4.11473,7.896718 4.72521,7.896718 0.61049,0 2.28681,-2.609749 3.72516,-5.79944 3.26732,-7.245615 4.47329,-7.998687 7.87673,-4.918622 3.22461,2.918232 9.06689,19.620686 8.12573,23.230569 -0.3627,1.391144 -0.73423,1.769586 -0.82563,0.840982 z"
       id="path1149"
       transform="translate(1.2551414,583.85114)" />
    <path
       style="fill:#008000;stroke-width:1.43256"
       d="m 161.48003,529.93343 c -0.0333,-1.32755 0.59779,-4.14529 1.40243,-6.26167 2.77489,-7.2985 12.76896,-60.17966 17.85377,-94.4688 10.85766,-73.21797 14.84029,-91.19675 24.58677,-110.99212 8.94644,-18.17047 24.4247,-34.07433 41.26049,-42.39503 9.874,-4.87999 12.67834,-5.6268 21.12913,-5.6268 10.51507,0 12.81505,-1.44289 4.72055,-2.96143 -10.21577,-1.91649 -26.14211,2.76734 -38.91307,11.44408 -8.33443,5.66251 -21.36773,18.97802 -27.25002,27.84006 -13.22024,19.91713 -17.54637,38.18376 -31.2626,132.00287 -6.34027,43.3675 -13.15226,83.28248 -13.44662,78.7907 -0.20021,-3.05523 3.6149,-52.18579 7.06386,-90.96745 3.42025,-38.45888 5.96265,-53.87103 10.94614,-66.35612 4.42756,-11.09232 3.4376,-13.21606 -1.56172,-3.35037 -7.53181,14.86331 -11.29558,36.49672 -15.11835,86.89719 -0.83666,11.0307 -1.72393,22.63442 -1.97172,25.78605 -0.24778,3.15163 -0.55732,-0.0716 -0.68786,-7.16279 -0.45478,-24.70521 4.28536,-72.78102 9.77181,-99.10833 7.3366,-35.20548 20.26868,-59.86433 44.18881,-84.25911 17.83664,-18.19057 30.36423,-21.15973 61.8323,-14.65484 l 16.47441,3.40549 -7.16279,3.62184 c -3.93953,1.99201 -11.74006,5.34843 -17.3345,7.45871 -11.84407,4.4677 -26.77786,16.26 -35.91093,28.35666 -14.28019,18.91398 -21.59083,40.06088 -34.08453,98.59353 -9.60105,44.98065 -17.47667,75.8956 -24.30068,95.38978 -6.5499,18.71113 -12.14965,31.98458 -12.22508,28.9779 z"
       id="path1151"
       transform="translate(1.2551414,583.85114)" />
    <path
       style="fill:#008000;stroke-width:1.43256"
       d="m 144.4017,536.43128 c -0.79637,-3.03418 -3.47611,-17.76506 -5.95497,-32.7353 -5.45055,-32.91666 -11.07007,-55.2519 -23.4464,-93.18971 C 103.55966,375.4366 94.063861,351.99375 81.374169,327.49133 65.210216,296.2805 43.000054,263.51194 36.277213,260.95592 c -2.134439,-0.81151 -4.223408,-3.70489 -5.911382,-8.18771 -1.435756,-3.81298 -5.045909,-12.0812 -8.022563,-18.37381 -2.976654,-6.29261 -5.288368,-11.56485 -5.137142,-11.71607 0.151227,-0.15123 9.937142,7.22056 21.746479,16.38176 25.18763,19.53953 39.459976,33.66292 52.673431,52.12369 31.958234,44.64947 55.717324,123.93079 55.314284,184.57732 l -0.13804,20.77209 -1.93154,-11.46046 c -1.06236,-6.30326 -4.25097,-19.19628 -7.08582,-28.65116 -2.83485,-9.45489 -7.61392,-29.15649 -10.62016,-43.78133 -6.58303,-32.02535 -12.46915,-47.6128 -34.5882,-91.59542 -20.917041,-41.59249 -40.116663,-71.62791 -45.786909,-71.62791 -0.957427,0 0.452234,2.4274 3.132582,5.39423 7.226756,7.99915 21.981813,34.22016 39.689329,70.53136 23.531308,48.25351 28.078198,60.75718 34.624698,95.21583 1.64142,8.63987 5.15964,22.49987 7.81828,30.8 5.63277,17.58524 8.44552,28.64794 10.57534,41.59347 1.8139,11.02525 4.69987,47.51609 3.82696,48.38899 -0.33396,0.33396 -1.25877,-1.87532 -2.05514,-4.90951 z"
       id="path1153"
       transform="translate(1.2551414,583.85114)" />
    <path
       style="fill:#008000;stroke-width:1.43256"
       d="M 101.28249,391.60852 C 98.54156,385.51536 88.915123,368.274 79.890404,353.2944 64.92477,328.45384 34.059459,265.99243 35.860257,264.19164 c 2.659505,-2.65951 30.518092,42.30237 45.434121,73.3276 9.959266,20.7152 26.198122,61.50707 25.415392,63.84325 -0.24408,0.72849 -2.68636,-3.66079 -5.42728,-9.75397 z"
       id="path1155"
       transform="translate(1.2551414,583.85114)" />
    <path
       style="fill:#008000;stroke-width:0.716279"
       d="m 139.36578,534.32724 c -3.20572,-4.48082 -7.138,-12.63697 -9.50946,-19.72406 -2.92436,-8.73945 -5.27999,-21.07634 -8.23501,-43.12824 -3.34264,-24.94465 -4.34485,-30.77939 -7.19734,-41.90233 -1.95913,-7.63937 -6.02309,-20.40269 -8.64706,-27.15703 -0.35343,-0.90977 -0.27128,-1.20948 0.24421,-0.89089 0.42726,0.26406 0.91131,0.0767 1.07566,-0.4164 0.41223,-1.23668 13.19163,38.53767 18.8031,58.5224 3.45371,12.30003 16.69304,76.68946 15.92609,77.45642 -0.15572,0.15571 -1.26281,-1.08622 -2.46019,-2.75987 z"
       id="path1157"
       transform="translate(1.2551414,583.85114)" />
    <path
       style="fill:#6dc381;stroke-width:0.716279"
       d="m 152.39556,551.51913 c -1.19355,-2.79454 -1.31527,-6.18681 -1.48422,-41.36512 -0.10122,-21.07651 -0.52893,-65.7186 -0.95048,-99.20465 -0.42154,-33.48605 -0.9249,-81.26612 -1.11859,-106.17794 l -0.35215,-45.29422 1.69134,-0.4245 c 0.93023,-0.23348 2.61667,-0.31875 3.74765,-0.1895 l 2.05631,0.235 -0.0879,12.89302 c -0.0484,7.09116 -0.32997,33.68302 -0.62579,59.09302 -0.5413,46.4945 0.30905,126.04644 1.85724,173.74999 0.82191,25.32477 0.15684,42.5061 -1.82937,47.25977 -0.56746,1.35812 -1.16046,2.46931 -1.31778,2.46931 -0.15732,0 -0.87112,-1.36988 -1.58623,-3.04418 z"
       id="path1159"
       transform="translate(1.2551414,583.85114)" />
    <path
       style="fill:#6dc381;stroke-width:0.716279"
       d="m 144.03558,253.58561 c -1.17296,-1.25565 -2.95907,-3.91342 -3.96915,-5.90614 -2.2338,-4.40696 -6.68239,-14.72546 -6.34855,-14.72546 0.13251,0 1.65133,0.51 3.37516,1.13333 1.84819,0.66829 6.67686,1.29637 11.768,1.53069 7.85703,0.36162 9.30693,0.22046 16.11628,-1.56903 12.72862,-3.34506 12.30217,-3.27541 11.79777,-1.92668 -1.81693,4.85838 -7.88346,13.98583 -12.35882,18.59455 -4.42195,4.55373 -5.41601,5.25192 -6.80465,4.77934 -2.1806,-0.7421 -6.1044,-0.81163 -9.04178,-0.16021 -2.11323,0.46866 -2.65771,0.25847 -4.53426,-1.75039 z"
       id="path1161"
       transform="translate(1.2551414,583.85114)" />
    <path
       style="fill:#ffd700;stroke-width:0.716279"
       d="m 140.44425,83.723353 c -9.72341,-9.657961 -14.50914,-18.306 -14.04116,-25.372999 0.32351,-4.885222 1.49635,-5.195809 7.82049,-2.070992 7.71506,3.812083 9.70817,3.627707 14.96256,-1.384139 3.04519,-2.904612 4.55376,-3.878712 5.49799,-3.550102 0.71571,0.24908 2.74858,2.224867 4.51748,4.390639 4.53969,5.558194 5.90879,5.714616 10.10212,1.154188 l 3.37074,-3.665831 3.32148,3.550938 c 2.64563,2.828386 3.18131,3.806485 2.63258,4.806807 -1.13222,2.064019 -7.06367,7.429575 -16.40231,14.837436 -4.84058,3.839787 -9.98547,8.398361 -11.43308,10.130165 -1.4476,1.731804 -3.01486,3.148734 -3.48279,3.148734 -0.46792,0 -3.55767,-2.68868 -6.8661,-5.974844 z"
       id="path20"
       transform="translate(1.2551414,583.85114)" />
  </g>
  <g
     inkscape:groupmode="layer"
     id="layer1"
     inkscape:label="Layer0" />
</svg>
